<svg width="152" height="55" viewBox="0 0 152 55" fill="none" xmlns="http://www.w3.org/2000/svg">
<rect x="0.597826" y="0.597826" width="150.717" height="53.8043" rx="26.9022" fill="#FA451E"/>
<rect x="0.597826" y="0.597826" width="150.717" height="53.8043" rx="26.9022" stroke="#FA451E" stroke-width="1.19565"/>
<path d="M55.1926 18.3225V27.5725H52.9893V18.3225H55.1926ZM40.5236 25.3691C41.1688 25.3691 41.8536 25.3592 42.5682 25.3493V21.1809H41V19.4738H50.7462V21.1809H49.1384V25.0813C49.9523 25.0218 50.7462 24.9424 51.5005 24.853L51.5998 26.441C48.0268 27.0067 43.8981 27.1159 40.7618 27.1159L40.5236 25.3691ZM43.1637 30.0537V28.3267H55.1926V32.9517H45.3868V34.3611H55.7682V36.1078H43.2034V31.3439H53.0091V30.0537H43.1637ZM44.6921 25.2997C45.4662 25.2798 46.2503 25.25 47.0343 25.2103V21.1809H44.6921V25.2997ZM72.2292 18.3225V36.2865H70.0457V26.5998H66.6713V24.8133H70.0457V18.3225H72.2292ZM57.9969 32.1577V19.8708H66.3934V21.6771H60.2201V24.8927H65.6788V26.6395H60.2201V30.3316C62.9494 30.3216 64.994 30.2224 67.3064 29.8552L67.5248 31.6416C64.9146 32.0386 62.612 32.1379 59.4063 32.1577H57.9969ZM87.6436 19.4142C87.6337 24.0392 84.5868 27.2846 79.3663 28.7436L78.4731 27.0167C82.4927 25.9249 84.8746 23.8209 85.2815 21.2007H79.4457V19.4142H87.6436ZM81.5696 36.0284V29.1604H93.3802V36.0284H81.5696ZM83.7333 34.2817H91.1967V30.9072H83.7333V34.2817ZM87.723 24.5355V22.7291H91.1769V18.3423H93.3802V28.4458H91.1769V24.5355H87.723ZM100.909 21.5778C100.919 23.5827 102.03 25.5676 104.382 26.5006L103.192 28.1878C101.613 27.5526 100.502 26.3815 99.8667 24.9523C99.2017 26.5601 98.0306 27.9298 96.3235 28.6642L95.1524 26.9571C97.6237 25.8753 98.775 23.6025 98.7849 21.5778V19.3944H100.909V21.5778ZM98.368 31.8203V30.0537H110.655V36.2666H108.452V31.8203H98.368ZM104.7 29.1009V18.6401H106.764V22.8085H108.551V18.3423H110.655V29.2001H108.551V24.6347H106.764V29.1009H104.7Z" fill="white"/>
</svg>
