<svg width="132" height="55" viewBox="0 0 132 55" fill="none" xmlns="http://www.w3.org/2000/svg">
<rect x="1.51189" y="0.597826" width="129.717" height="53.8043" rx="26.9022" stroke="#FA451E" stroke-width="1.19565"/>
<path d="M57.6213 32.3364V34.1427H41.2254V32.3364H48.3118V28.6245H50.4952V32.3364H57.6213ZM41.9003 27.5129C45.7908 27.0067 48.1232 24.9424 48.282 22.7093H42.6744V20.9228H48.3118V18.6004H50.4952V20.9228H56.1524V22.7093H50.5448C50.6937 24.9424 53.0261 27.0067 56.9067 27.5129L56.0928 29.2398C52.9963 28.8031 50.5945 27.4236 49.4035 25.4684C48.2224 27.4236 45.8405 28.8031 42.734 29.2398L41.9003 27.5129ZM73.1691 18.3225V36.2666H70.946V18.3225H73.1691ZM58.3017 31.324C63.0061 29.091 65.1697 26.054 65.5667 21.9748H59.2148V20.2281H67.8097C67.8097 25.5676 65.7354 30.1033 59.453 33.0907L58.3017 31.324ZM89.3323 18.3225V25.7264H91.8532V27.5725H89.3323V36.2666H87.1092V18.3225H89.3323ZM74.9215 31.2843C76.2812 31.2843 77.8592 31.2843 79.5067 31.2447V29.5674C77.5515 29.2299 76.2812 28.0092 76.2911 26.3219C76.2812 24.2973 78.0577 22.9574 80.6382 22.9475C83.1889 22.9574 84.9853 24.2973 85.0051 26.3219C84.9853 28.0191 83.6851 29.2398 81.7299 29.5674V31.1653C83.2385 31.0859 84.7471 30.9668 86.1564 30.7683L86.2953 32.3761C82.4445 33.0807 78.2959 33.1105 75.2391 33.1105L74.9215 31.2843ZM75.2589 22.1336V20.3869H79.5067V18.4019H81.7299V20.3869H85.9579V22.1336H75.2589ZM78.3753 26.3219C78.3654 27.3541 79.2785 27.9595 80.6382 27.9496C81.978 27.9595 82.8812 27.3541 82.8812 26.3219C82.8812 25.2798 81.978 24.6446 80.6382 24.6347C79.2785 24.6446 78.3654 25.2798 78.3753 26.3219Z" fill="#FA451E"/>
</svg>
