<svg width="270" height="44" viewBox="0 0 270 44" fill="none" xmlns="http://www.w3.org/2000/svg">
<rect x="0.5" y="0.5" width="269" height="43" rx="5.5" fill="#F2F2F2"/>
<rect x="0.5" y="0.5" width="269" height="43" rx="5.5" stroke="#E3E3E3"/>
<g clip-path="url(#clip0_601_10269)">
<mask id="mask0_601_10269" style="mask-type:luminance" maskUnits="userSpaceOnUse" x="12" y="12" width="20" height="20">
<path d="M32 12H12V32H32V12Z" fill="white"/>
</mask>
<g mask="url(#mask0_601_10269)">
<path d="M31.6 22.2299C31.6 21.5199 31.54 20.8399 31.42 20.1799H22V24.0499H27.38C27.15 25.2999 26.44 26.3599 25.38 27.0699V29.5799H28.61C30.5 27.8399 31.59 25.2799 31.59 22.2299H31.6Z" fill="#4285F4"/>
<path d="M22.0001 31.9999C24.7001 31.9999 26.9601 31.0999 28.6201 29.5799L25.3901 27.0699C24.4901 27.6699 23.3501 28.0199 22.0001 28.0199C19.4001 28.0199 17.1901 26.2599 16.4001 23.8999H13.0601V26.4899C14.7101 29.7599 18.0901 31.9999 22.0001 31.9999Z" fill="#34A853"/>
<path d="M16.4 23.9C16.2 23.3 16.09 22.66 16.09 22C16.09 21.34 16.2 20.7 16.4 20.1V17.51H13.06C12.38 18.86 12 20.39 12 22C12 23.61 12.39 25.14 13.06 26.49L16.4 23.9Z" fill="#FBBC04"/>
<path d="M22.0001 15.98C23.4701 15.98 24.7901 16.48 25.8201 17.48L28.6901 14.61C26.9601 13 24.6901 12.01 22.0001 12.01C18.0901 12.01 14.7101 14.25 13.0601 17.52L16.4001 20.11C17.1901 17.75 19.3901 15.99 22.0001 15.99V15.98Z" fill="#FA451E"/>
</g>
</g>
<path d="M93.0718 20.1914C92.648 18.9199 91.6841 18.1133 90.2691 18.1133C88.5191 18.1133 87.1314 19.4941 87.1246 22.0508C87.1314 24.6006 88.5191 25.9814 90.3511 25.9883C92.0191 25.9814 93.1744 24.874 93.1949 23.1172H90.6109V22.0371H94.398V23.1035C94.398 25.5576 92.7095 27.1367 90.3511 27.1367C87.7056 27.1367 85.9283 25.1816 85.9351 22.0508C85.9283 18.9199 87.7261 16.9648 90.2691 16.9648C92.3609 16.9648 93.9742 18.2773 94.3433 20.1914H93.0718ZM98.7085 27.1504C96.685 27.1572 95.3179 25.626 95.3179 23.3223C95.3179 21.0049 96.685 19.4805 98.7085 19.4805C100.725 19.4805 102.079 21.0049 102.072 23.3223C102.079 25.626 100.725 27.1572 98.7085 27.1504ZM96.4936 23.3223C96.5005 24.8057 97.1977 26.1113 98.7085 26.1113C100.206 26.1113 100.896 24.8057 100.896 23.3223C100.896 21.8457 100.206 20.5195 98.7085 20.5195C97.1977 20.5195 96.5005 21.8457 96.4936 23.3223ZM106.232 27.1504C104.208 27.1572 102.841 25.626 102.841 23.3223C102.841 21.0049 104.208 19.4805 106.232 19.4805C108.248 19.4805 109.602 21.0049 109.595 23.3223C109.602 25.626 108.248 27.1572 106.232 27.1504ZM104.017 23.3223C104.024 24.8057 104.721 26.1113 106.232 26.1113C107.729 26.1113 108.419 24.8057 108.419 23.3223C108.419 21.8457 107.729 20.5195 106.232 20.5195C104.721 20.5195 104.024 21.8457 104.017 23.3223ZM113.728 29.9395C111.93 29.9395 110.713 29.1533 110.583 27.7793H111.814C111.971 28.5381 112.675 28.9141 113.728 28.9141C114.999 28.9141 115.779 28.3604 115.779 27.1367V25.6328H115.683C115.43 26.043 114.958 26.8838 113.523 26.8906C111.718 26.8838 110.365 25.5234 110.365 23.1855C110.365 20.9023 111.67 19.4805 113.536 19.4805C114.979 19.4805 115.444 20.3555 115.71 20.752H115.806V19.5762H116.954V27.2051C116.948 29.1191 115.539 29.9395 113.728 29.9395ZM111.554 23.2266C111.554 24.7646 112.279 25.8379 113.687 25.8379C115.047 25.8379 115.799 24.8604 115.806 23.2266C115.799 21.6338 115.068 20.5332 113.687 20.5332C112.258 20.5332 111.554 21.7295 111.554 23.2266ZM119.583 17.1016V27H118.407V17.1016H119.583ZM124.153 27.1504C122.007 27.1572 120.681 25.626 120.681 23.3496C120.681 21.0664 122.028 19.4805 124.044 19.4805C125.603 19.4805 127.25 20.4375 127.243 23.1855V23.6777H121.857C121.918 25.25 122.834 26.1113 124.153 26.1113C125.042 26.1113 125.603 25.7217 125.876 25.2637H127.134C126.785 26.3916 125.685 27.1572 124.153 27.1504ZM121.863 22.6797H126.054C126.047 21.4424 125.268 20.5195 124.044 20.5195C122.759 20.5195 121.945 21.5312 121.863 22.6797ZM141.401 15.9531V28.1074H140.376V15.9531H141.401ZM130.983 24.7031C133.629 23.1377 134.955 20.9434 135.167 18.4004H131.53V17.5117H136.233C136.233 18.1338 136.179 18.749 136.069 19.3438H137.915V16.2812H138.94V27.4922H137.915V23.2812H135.659V22.3926H137.915V20.2324H135.857C135.27 22.29 133.937 24.1084 131.64 25.4824L130.983 24.7031ZM152.753 15.9531V23.1992H151.673V20.0137H149.226V19.125H151.673V15.9531H152.753ZM142.731 22.2285C144.536 21.5791 145.821 19.9316 145.821 18.1953V17.7441H143.073V16.8418H149.622V17.7441H146.901V18.1816C146.901 19.7676 148.118 21.2783 149.895 21.8867L149.335 22.748C147.975 22.2559 146.915 21.2305 146.389 19.9795C145.869 21.4014 144.741 22.5361 143.292 23.0898L142.731 22.2285ZM144.645 25.8379C144.639 24.4092 146.19 23.5752 148.72 23.582C151.242 23.5752 152.794 24.4092 152.794 25.8379C152.794 27.2734 151.242 28.0938 148.72 28.1074C146.19 28.0938 144.639 27.2734 144.645 25.8379ZM145.712 25.8379C145.705 26.7197 146.853 27.2529 148.72 27.2461C150.579 27.2529 151.727 26.7197 151.727 25.8379C151.727 24.9492 150.579 24.416 148.72 24.416C146.853 24.416 145.705 24.9492 145.712 25.8379ZM159.893 16.7461C162.43 16.7529 164.337 18.0791 164.337 20.082C164.337 22.1055 162.43 23.4316 159.893 23.418C157.357 23.4316 155.45 22.1055 155.45 20.082C155.45 18.0791 157.357 16.7529 159.893 16.7461ZM154.356 26.4941V25.5918H165.485V26.4941H154.356ZM156.475 20.082C156.462 21.5586 157.931 22.543 159.893 22.543C161.842 22.543 163.298 21.5586 163.298 20.082C163.298 18.626 161.842 17.6143 159.893 17.6211C157.931 17.6143 156.462 18.626 156.475 20.082ZM177.165 25.7012V26.6035H166.036V25.7012H171.04V23.4043H167.43V19.6582H174.704V17.7441H167.403V16.8555H175.757V20.5332H168.497V22.5156H176.044V23.4043H172.093V25.7012H177.165ZM191.938 25.7012V26.6035H180.809V25.7012H185.813V23.4043H182.204V19.6582H189.477V17.7441H182.176V16.8555H190.53V20.5332H183.27V22.5156H190.817V23.4043H186.866V25.7012H191.938ZM202.073 17.252V18.4688C202.073 20 202.073 21.7295 201.622 24.375L200.528 24.2656C201.02 21.7773 201.02 19.959 201.02 18.4688V18.1406H193.692V17.252H202.073ZM192.489 26.3164V25.4277H203.563V26.3164H192.489ZM214.204 15.9668V24.8535H213.137V15.9668H214.204ZM204.456 19.7949C204.449 18.0449 205.823 16.8213 207.641 16.8145C209.459 16.8213 210.82 18.0449 210.827 19.7949C210.82 21.5654 209.459 22.7959 207.641 22.7891C205.823 22.7959 204.449 21.5654 204.456 19.7949ZM205.508 19.7949C205.495 21.0049 206.411 21.8457 207.641 21.8457C208.851 21.8457 209.774 21.0049 209.774 19.7949C209.774 18.6055 208.851 17.7578 207.641 17.7578C206.411 17.7578 205.495 18.6055 205.508 19.7949ZM206.356 27.8477V23.9512H207.422V26.9453H214.586V27.8477H206.356Z" fill="#131314"/>
<defs>
<clipPath id="clip0_601_10269">
<rect width="20" height="20" fill="white" transform="translate(12 12)"/>
</clipPath>
</defs>
</svg>
