<svg width="270" height="44" viewBox="0 0 270 44" fill="none" xmlns="http://www.w3.org/2000/svg">
<rect width="270" height="44" rx="6" fill="#FEE500"/>
<path d="M98.14 17.2246C98.1332 20.7314 96.9369 23.9443 92.5619 26.0977L91.9604 25.2773C94.2436 24.1631 95.6176 22.7549 96.3559 21.1211L92.1928 21.5176L92.015 20.5742L96.684 20.2598C96.9027 19.5762 97.0258 18.8584 97.0736 18.1133H92.6303V17.2246H98.14ZM100.177 28.1074V15.9531H101.244V20.9023H103.212V21.8047H101.244V28.1074H100.177ZM109.82 17.2246C109.813 20.7314 108.617 23.9443 104.242 26.0977L103.64 25.2773C105.923 24.1631 107.297 22.7549 108.035 21.1211L103.872 21.5176L103.695 20.5742L108.364 20.2598C108.582 19.5762 108.705 18.8584 108.753 18.1133H104.31V17.2246H109.82ZM111.857 28.1074V15.9531H112.923V20.9023H114.892V21.8047H112.923V28.1074H111.857ZM120.734 16.7461C123.318 16.7598 125.177 18.0176 125.177 19.9316C125.177 21.7432 123.564 22.9395 121.253 23.0967V25.6465H126.325V26.5488H115.197V25.6465H120.2V23.0967C117.904 22.9326 116.29 21.7363 116.29 19.9316C116.29 18.0176 118.156 16.7598 120.734 16.7461ZM117.329 19.9316C117.322 21.333 118.765 22.2422 120.734 22.2559C122.702 22.2422 124.138 21.333 124.138 19.9316C124.138 18.5576 122.702 17.6279 120.734 17.6348C118.765 17.6279 117.322 18.5576 117.329 19.9316ZM137.28 15.9531V28.1074H136.255V15.9531H137.28ZM126.862 24.7031C129.508 23.1377 130.834 20.9434 131.046 18.4004H127.409V17.5117H132.112C132.112 18.1338 132.058 18.749 131.948 19.3438H133.794V16.2812H134.819V27.4922H133.794V23.2812H131.538V22.3926H133.794V20.2324H131.736C131.149 22.29 129.816 24.1084 127.519 25.4824L126.862 24.7031ZM148.632 15.9531V23.1992H147.552V20.0137H145.105V19.125H147.552V15.9531H148.632ZM138.61 22.2285C140.415 21.5791 141.7 19.9316 141.7 18.1953V17.7441H138.952V16.8418H145.501V17.7441H142.78V18.1816C142.78 19.7676 143.997 21.2783 145.774 21.8867L145.214 22.748C143.854 22.2559 142.794 21.2305 142.268 19.9795C141.748 21.4014 140.62 22.5361 139.171 23.0898L138.61 22.2285ZM140.524 25.8379C140.518 24.4092 142.069 23.5752 144.599 23.582C147.121 23.5752 148.673 24.4092 148.673 25.8379C148.673 27.2734 147.121 28.0938 144.599 28.1074C142.069 28.0938 140.518 27.2734 140.524 25.8379ZM141.591 25.8379C141.584 26.7197 142.732 27.2529 144.599 27.2461C146.458 27.2529 147.607 26.7197 147.607 25.8379C147.607 24.9492 146.458 24.416 144.599 24.416C142.732 24.416 141.584 24.9492 141.591 25.8379ZM155.772 16.7461C158.309 16.7529 160.216 18.0791 160.216 20.082C160.216 22.1055 158.309 23.4316 155.772 23.418C153.236 23.4316 151.329 22.1055 151.329 20.082C151.329 18.0791 153.236 16.7529 155.772 16.7461ZM150.235 26.4941V25.5918H161.364V26.4941H150.235ZM152.354 20.082C152.341 21.5586 153.811 22.543 155.772 22.543C157.721 22.543 159.177 21.5586 159.177 20.082C159.177 18.626 157.721 17.6143 155.772 17.6211C153.811 17.6143 152.341 18.626 152.354 20.082ZM173.044 25.7012V26.6035H161.915V25.7012H166.919V23.4043H163.309V19.6582H170.583V17.7441H163.282V16.8555H171.636V20.5332H164.376V22.5156H171.923V23.4043H167.972V25.7012H173.044ZM187.817 25.7012V26.6035H176.688V25.7012H181.692V23.4043H178.083V19.6582H185.356V17.7441H178.055V16.8555H186.409V20.5332H179.149V22.5156H186.696V23.4043H182.745V25.7012H187.817ZM197.952 17.252V18.4688C197.952 20 197.952 21.7295 197.501 24.375L196.407 24.2656C196.899 21.7773 196.899 19.959 196.899 18.4688V18.1406H189.571V17.252H197.952ZM188.368 26.3164V25.4277H199.442V26.3164H188.368ZM210.083 15.9668V24.8535H209.016V15.9668H210.083ZM200.335 19.7949C200.328 18.0449 201.702 16.8213 203.52 16.8145C205.338 16.8213 206.699 18.0449 206.706 19.7949C206.699 21.5654 205.338 22.7959 203.52 22.7891C201.702 22.7959 200.328 21.5654 200.335 19.7949ZM201.387 19.7949C201.374 21.0049 202.29 21.8457 203.52 21.8457C204.73 21.8457 205.653 21.0049 205.653 19.7949C205.653 18.6055 204.73 17.7578 203.52 17.7578C202.29 17.7578 201.374 18.6055 201.387 19.7949ZM202.235 27.8477V23.9512H203.301V26.9453H210.465V27.8477H202.235Z" fill="black"/>
<path d="M22 14C17.0293 14 13 17.0821 13 20.8841C13 23.359 14.7074 25.5275 17.2694 26.741C17.0811 27.4213 16.5878 29.2046 16.4889 29.5862C16.3672 30.0599 16.6684 30.0536 16.8657 29.9259C17.0205 29.8262 19.3321 28.3059 20.3294 27.6496C20.8707 27.7272 21.4288 27.7682 22 27.7682C26.9707 27.7682 31 24.6857 31 20.8841C31 17.0825 26.9707 14 22 14Z" fill="black"/>
</svg>
