<svg width="66" height="18" viewBox="0 0 66 18" fill="none" xmlns="http://www.w3.org/2000/svg">
<path d="M6.54297 3.01172C6.5332 5.375 8.33008 7.54297 10.8789 8.42188L10.0781 9.63281C8.10547 8.93945 6.57227 7.47461 5.82031 5.63867C5.08789 7.66016 3.52539 9.22266 1.46484 9.98438L0.664062 8.75391C3.29102 7.82617 5.0293 5.54102 5.03906 2.91406V1.11719H6.54297V3.01172ZM2.91016 12.8555V11.6055H14.2773V17.582H12.7539V12.8555H2.91016ZM12.7539 10.7461V0.21875H14.2773V4.82812H16.8945V6.13672H14.2773V10.7461H12.7539ZM32.232 0.21875V17.582H30.7672V0.21875H32.232ZM17.1734 12.9531C19.5953 11.5078 21.0113 8.33398 21.0016 5.17969V3.53906H17.6617V2.26953H25.6695V3.53906H22.4859V5.17969C22.4859 8.17773 23.8434 11.1758 26.2359 12.5625L25.2984 13.6953C23.5895 12.6699 22.3785 10.7949 21.773 8.58789C21.148 10.9805 19.8883 13.0215 18.15 14.1055L17.1734 12.9531ZM24.3414 7.73828V6.48828H27.2711V0.648438H28.7164V16.6836H27.2711V7.73828H24.3414ZM47.5109 0.21875V7.38672H50.4211V8.65625H47.5109V17.582H45.9875V0.21875H47.5109ZM33.9758 4.28125V3.01172H38.4484V0.433594H39.9719V3.01172H44.3078V4.28125H33.9758ZM34.9719 9.71094C34.9621 7.36719 36.759 5.72656 39.2297 5.72656C41.6809 5.72656 43.468 7.36719 43.4875 9.71094C43.468 12.0645 41.6809 13.6953 39.2297 13.6953C36.759 13.6953 34.9621 12.0645 34.9719 9.71094ZM36.4367 9.71094C36.427 11.293 37.6086 12.4062 39.2297 12.3867C40.8312 12.4062 42.0031 11.293 42.0227 9.71094C42.0031 8.13867 40.8312 7.00586 39.2297 7.01562C37.6086 7.00586 36.427 8.13867 36.4367 9.71094ZM65.1141 0.21875V17.582H63.5711V0.21875H65.1141ZM50.9734 13.0703C55.6707 10.8438 58.073 7.51367 58.4148 3.36328H51.7742V2.11328H59.9773C59.9578 7.10352 57.6336 11.5273 51.8133 14.3203L50.9734 13.0703Z" fill="#FA451E"/>
</svg>
