<svg width="180" height="50" viewBox="0 0 180 50" fill="none" xmlns="http://www.w3.org/2000/svg">
<rect x="0.5" y="0.5" width="179" height="49" rx="24.5" stroke="#FA451E"/>
<path d="M62.543 19.0117C62.5332 21.375 64.3301 23.543 66.8789 24.4219L66.0781 25.6328C64.1055 24.9395 62.5723 23.4746 61.8203 21.6387C61.0879 23.6602 59.5254 25.2227 57.4648 25.9844L56.6641 24.7539C59.291 23.8262 61.0293 21.541 61.0391 18.9141V17.1172H62.543V19.0117ZM58.9102 28.8555V27.6055H70.2773V33.582H68.7539V28.8555H58.9102ZM68.7539 26.7461V16.2188H70.2773V20.8281H72.8945V22.1367H70.2773V26.7461H68.7539ZM88.232 16.2188V33.582H86.7672V16.2188H88.232ZM73.1734 28.9531C75.5953 27.5078 77.0113 24.334 77.0016 21.1797V19.5391H73.6617V18.2695H81.6695V19.5391H78.4859V21.1797C78.4859 24.1777 79.8434 27.1758 82.2359 28.5625L81.2984 29.6953C79.5895 28.6699 78.3785 26.7949 77.773 24.5879C77.148 26.9805 75.8883 29.0215 74.15 30.1055L73.1734 28.9531ZM80.3414 23.7383V22.4883H83.2711V16.6484H84.7164V32.6836H83.2711V23.7383H80.3414ZM103.511 16.2188V23.3867H106.421V24.6562H103.511V33.582H101.987V16.2188H103.511ZM89.9758 20.2812V19.0117H94.4484V16.4336H95.9719V19.0117H100.308V20.2812H89.9758ZM90.9719 25.7109C90.9621 23.3672 92.759 21.7266 95.2297 21.7266C97.6809 21.7266 99.468 23.3672 99.4875 25.7109C99.468 28.0645 97.6809 29.6953 95.2297 29.6953C92.759 29.6953 90.9621 28.0645 90.9719 25.7109ZM92.4367 25.7109C92.427 27.293 93.6086 28.4062 95.2297 28.3867C96.8312 28.4062 98.0031 27.293 98.0227 25.7109C98.0031 24.1387 96.8312 23.0059 95.2297 23.0156C93.6086 23.0059 92.427 24.1387 92.4367 25.7109ZM121.114 16.2188V33.582H119.571V16.2188H121.114ZM106.973 29.0703C111.671 26.8438 114.073 23.5137 114.415 19.3633H107.774V18.1133H115.977C115.958 23.1035 113.634 27.5273 107.813 30.3203L106.973 29.0703Z" fill="#FA451E"/>
</svg>
