<svg width="66" height="18" viewBox="0 0 66 18" fill="none" xmlns="http://www.w3.org/2000/svg">
<path d="M9.41406 1.83984C9.42383 4.29102 12.6074 6.40039 15.7422 6.83984L15.1172 8.08984C12.4219 7.64062 9.74609 6.14648 8.63281 4.01758C7.51953 6.16602 4.85352 7.64062 2.14844 8.08984L1.52344 6.83984C4.6582 6.40039 7.83203 4.33008 7.83203 1.83984V0.84375H9.41406V1.83984ZM0.703125 11.293V10.0039H16.5234V11.293H9.33594V17.582H7.83203V11.293H0.703125ZM31.7828 0.21875V10.5703H30.2398V6.01953H26.7437V4.75H30.2398V0.21875H31.7828ZM17.4664 9.18359C20.0445 8.25586 21.8805 5.90234 21.8805 3.42188V2.77734H17.9547V1.48828H27.3102V2.77734H23.4234V3.40234C23.4234 5.66797 25.1617 7.82617 27.7008 8.69531L26.9 9.92578C24.9566 9.22266 23.443 7.75781 22.691 5.9707C21.9488 8.00195 20.3375 9.62305 18.2672 10.4141L17.4664 9.18359ZM20.2008 14.3398C20.191 12.2988 22.4078 11.1074 26.0211 11.1172C29.6246 11.1074 31.8414 12.2988 31.8414 14.3398C31.8414 16.3906 29.6246 17.5625 26.0211 17.582C22.4078 17.5625 20.191 16.3906 20.2008 14.3398ZM21.7242 14.3398C21.7145 15.5996 23.3551 16.3613 26.0211 16.3516C28.6773 16.3613 30.318 15.5996 30.318 14.3398C30.318 13.0703 28.6773 12.3086 26.0211 12.3086C23.3551 12.3086 21.7145 13.0703 21.7242 14.3398ZM47.5109 0.21875V7.38672H50.4211V8.65625H47.5109V17.582H45.9875V0.21875H47.5109ZM33.9758 4.28125V3.01172H38.4484V0.433594H39.9719V3.01172H44.3078V4.28125H33.9758ZM34.9719 9.71094C34.9621 7.36719 36.759 5.72656 39.2297 5.72656C41.6809 5.72656 43.468 7.36719 43.4875 9.71094C43.468 12.0645 41.6809 13.6953 39.2297 13.6953C36.759 13.6953 34.9621 12.0645 34.9719 9.71094ZM36.4367 9.71094C36.427 11.293 37.6086 12.4062 39.2297 12.3867C40.8312 12.4062 42.0031 11.293 42.0227 9.71094C42.0031 8.13867 40.8312 7.00586 39.2297 7.01562C37.6086 7.00586 36.427 8.13867 36.4367 9.71094ZM65.1141 0.21875V17.582H63.5711V0.21875H65.1141ZM50.9734 13.0703C55.6707 10.8438 58.073 7.51367 58.4148 3.36328H51.7742V2.11328H59.9773C59.9578 7.10352 57.6336 11.5273 51.8133 14.3203L50.9734 13.0703Z" fill="#FA451E"/>
</svg>
