<svg width="180" height="50" viewBox="0 0 180 50" fill="none" xmlns="http://www.w3.org/2000/svg">
<rect x="0.5" y="0.5" width="179" height="49" rx="24.5" stroke="#FA451E"/>
<path d="M65.4141 17.8398C65.4238 20.291 68.6074 22.4004 71.7422 22.8398L71.1172 24.0898C68.4219 23.6406 65.7461 22.1465 64.6328 20.0176C63.5195 22.166 60.8535 23.6406 58.1484 24.0898L57.5234 22.8398C60.6582 22.4004 63.832 20.3301 63.832 17.8398V16.8438H65.4141V17.8398ZM56.7031 27.293V26.0039H72.5234V27.293H65.3359V33.582H63.832V27.293H56.7031ZM87.7828 16.2188V26.5703H86.2398V22.0195H82.7437V20.75H86.2398V16.2188H87.7828ZM73.4664 25.1836C76.0445 24.2559 77.8805 21.9023 77.8805 19.4219V18.7773H73.9547V17.4883H83.3102V18.7773H79.4234V19.4023C79.4234 21.668 81.1617 23.8262 83.7008 24.6953L82.9 25.9258C80.9566 25.2227 79.443 23.7578 78.691 21.9707C77.9488 24.002 76.3375 25.623 74.2672 26.4141L73.4664 25.1836ZM76.2008 30.3398C76.191 28.2988 78.4078 27.1074 82.0211 27.1172C85.6246 27.1074 87.8414 28.2988 87.8414 30.3398C87.8414 32.3906 85.6246 33.5625 82.0211 33.582C78.4078 33.5625 76.191 32.3906 76.2008 30.3398ZM77.7242 30.3398C77.7145 31.5996 79.3551 32.3613 82.0211 32.3516C84.6773 32.3613 86.318 31.5996 86.318 30.3398C86.318 29.0703 84.6773 28.3086 82.0211 28.3086C79.3551 28.3086 77.7145 29.0703 77.7242 30.3398ZM103.511 16.2188V23.3867H106.421V24.6562H103.511V33.582H101.987V16.2188H103.511ZM89.9758 20.2812V19.0117H94.4484V16.4336H95.9719V19.0117H100.308V20.2812H89.9758ZM90.9719 25.7109C90.9621 23.3672 92.759 21.7266 95.2297 21.7266C97.6809 21.7266 99.468 23.3672 99.4875 25.7109C99.468 28.0645 97.6809 29.6953 95.2297 29.6953C92.759 29.6953 90.9621 28.0645 90.9719 25.7109ZM92.4367 25.7109C92.427 27.293 93.6086 28.4062 95.2297 28.3867C96.8312 28.4062 98.0031 27.293 98.0227 25.7109C98.0031 24.1387 96.8312 23.0059 95.2297 23.0156C93.6086 23.0059 92.427 24.1387 92.4367 25.7109ZM121.114 16.2188V33.582H119.571V16.2188H121.114ZM106.973 29.0703C111.671 26.8438 114.073 23.5137 114.415 19.3633H107.774V18.1133H115.977C115.958 23.1035 113.634 27.5273 107.813 30.3203L106.973 29.0703Z" fill="#FA451E"/>
</svg>
