<svg width="63" height="20" viewBox="0 0 63 20" fill="none" xmlns="http://www.w3.org/2000/svg">
<path d="M0.0625 15V0.859375H1.82031V13.4375H8.38281V15H0.0625ZM14.2477 15.2148C11.357 15.2246 9.40391 13.0371 9.40391 9.74609C9.40391 6.43555 11.357 4.25781 14.2477 4.25781C17.1285 4.25781 19.0621 6.43555 19.0523 9.74609C19.0621 13.0371 17.1285 15.2246 14.2477 15.2148ZM11.0836 9.74609C11.0934 11.8652 12.0895 13.7305 14.2477 13.7305C16.3863 13.7305 17.3727 11.8652 17.3727 9.74609C17.3727 7.63672 16.3863 5.74219 14.2477 5.74219C12.0895 5.74219 11.0934 7.63672 11.0836 9.74609ZM24.9562 19.1992C22.3879 19.1992 20.6496 18.0762 20.4641 16.1133H22.2219C22.4465 17.1973 23.4523 17.7344 24.9562 17.7344C26.7727 17.7344 27.8859 16.9434 27.8859 15.1953V13.0469H27.7492C27.3879 13.6328 26.7141 14.834 24.6633 14.8438C22.0852 14.834 20.1516 12.8906 20.1516 9.55078C20.1516 6.28906 22.0168 4.25781 24.6828 4.25781C26.7434 4.25781 27.4074 5.50781 27.7883 6.07422H27.925V4.39453H29.5656V15.293C29.5559 18.0273 27.5441 19.1992 24.9562 19.1992ZM21.8508 9.60938C21.8508 11.8066 22.8859 13.3398 24.8977 13.3398C26.841 13.3398 27.9152 11.9434 27.925 9.60938C27.9152 7.33398 26.8703 5.76172 24.8977 5.76172C22.8566 5.76172 21.8508 7.4707 21.8508 9.60938ZM40.3969 15.2148C37.5062 15.2246 35.5531 13.0371 35.5531 9.74609C35.5531 6.43555 37.5062 4.25781 40.3969 4.25781C43.2777 4.25781 45.2113 6.43555 45.2016 9.74609C45.2113 13.0371 43.2777 15.2246 40.3969 15.2148ZM37.2328 9.74609C37.2426 11.8652 38.2387 13.7305 40.3969 13.7305C42.5355 13.7305 43.5219 11.8652 43.5219 9.74609C43.5219 7.63672 42.5355 5.74219 40.3969 5.74219C38.2387 5.74219 37.2426 7.63672 37.2328 9.74609ZM53.5078 10.6445V4.39453H55.168V15H53.5078V13.2031H53.3906C52.8926 14.2773 51.8379 15.1367 50.2461 15.1367C48.2344 15.1367 46.7988 13.8281 46.8086 11.1328V4.39453H48.4883V11.0156C48.4883 12.5391 49.4355 13.5254 50.793 13.5156C51.9941 13.5254 53.498 12.627 53.5078 10.6445ZM61.8922 4.39453V5.80078H59.6656V11.9531C59.6559 13.3105 60.3395 13.5352 61.0523 13.5352C61.3551 13.5352 61.8043 13.5059 62.0484 13.4961V15.0586C61.7848 15.0977 61.3746 15.1367 60.8766 15.1367C59.4605 15.1367 57.9762 14.2578 57.9664 12.3828V5.80078H56.3648V4.39453H57.9664V1.85547H59.6656V4.39453H61.8922Z" fill="#FA451E"/>
</svg>
