<svg width="180" height="50" viewBox="0 0 180 50" fill="none" xmlns="http://www.w3.org/2000/svg">
<rect x="0.5" y="0.5" width="179" height="49" rx="24.5" stroke="#FA451E"/>
<path d="M59.0625 32V17.8594H60.8203V30.4375H67.3828V32H59.0625ZM73.2477 32.2148C70.357 32.2246 68.4039 30.0371 68.4039 26.7461C68.4039 23.4355 70.357 21.2578 73.2477 21.2578C76.1285 21.2578 78.0621 23.4355 78.0523 26.7461C78.0621 30.0371 76.1285 32.2246 73.2477 32.2148ZM70.0836 26.7461C70.0934 28.8652 71.0895 30.7305 73.2477 30.7305C75.3863 30.7305 76.3727 28.8652 76.3727 26.7461C76.3727 24.6367 75.3863 22.7422 73.2477 22.7422C71.0895 22.7422 70.0934 24.6367 70.0836 26.7461ZM83.9562 36.1992C81.3879 36.1992 79.6496 35.0762 79.4641 33.1133H81.2219C81.4465 34.1973 82.4523 34.7344 83.9562 34.7344C85.7727 34.7344 86.8859 33.9434 86.8859 32.1953V30.0469H86.7492C86.3879 30.6328 85.7141 31.834 83.6633 31.8438C81.0852 31.834 79.1516 29.8906 79.1516 26.5508C79.1516 23.2891 81.0168 21.2578 83.6828 21.2578C85.7434 21.2578 86.4074 22.5078 86.7883 23.0742H86.925V21.3945H88.5656V32.293C88.5559 35.0273 86.5441 36.1992 83.9562 36.1992ZM80.8508 26.6094C80.8508 28.8066 81.8859 30.3398 83.8977 30.3398C85.841 30.3398 86.9152 28.9434 86.925 26.6094C86.9152 24.334 85.8703 22.7617 83.8977 22.7617C81.8566 22.7617 80.8508 24.4707 80.8508 26.6094ZM99.3969 32.2148C96.5062 32.2246 94.5531 30.0371 94.5531 26.7461C94.5531 23.4355 96.5062 21.2578 99.3969 21.2578C102.278 21.2578 104.211 23.4355 104.202 26.7461C104.211 30.0371 102.278 32.2246 99.3969 32.2148ZM96.2328 26.7461C96.2426 28.8652 97.2387 30.7305 99.3969 30.7305C101.536 30.7305 102.522 28.8652 102.522 26.7461C102.522 24.6367 101.536 22.7422 99.3969 22.7422C97.2387 22.7422 96.2426 24.6367 96.2328 26.7461ZM112.508 27.6445V21.3945H114.168V32H112.508V30.2031H112.391C111.893 31.2773 110.838 32.1367 109.246 32.1367C107.234 32.1367 105.799 30.8281 105.809 28.1328V21.3945H107.488V28.0156C107.488 29.5391 108.436 30.5254 109.793 30.5156C110.994 30.5254 112.498 29.627 112.508 27.6445ZM120.892 21.3945V22.8008H118.666V28.9531C118.656 30.3105 119.339 30.5352 120.052 30.5352C120.355 30.5352 120.804 30.5059 121.048 30.4961V32.0586C120.785 32.0977 120.375 32.1367 119.877 32.1367C118.461 32.1367 116.976 31.2578 116.966 29.3828V22.8008H115.365V21.3945H116.966V18.8555H118.666V21.3945H120.892Z" fill="#FA451E"/>
</svg>
