<svg width="73" height="20" viewBox="0 0 73 20" fill="none" xmlns="http://www.w3.org/2000/svg">
<path d="M0.0625 0.859375H2.17188L6.9375 12.5H7.11328L11.8789 0.859375H13.9883V15H12.3281V4.31641H12.1914L7.79688 15H6.23438L1.83984 4.31641H1.72266V15H0.0625V0.859375ZM17.3727 18.9844C17.0113 18.9746 16.65 18.9648 16.4352 18.9453V17.4414C16.6109 17.4609 16.9918 17.4707 17.2555 17.4805C17.9391 17.4707 18.5152 17.4316 19.0719 15.8789L19.3844 15.0781L15.4586 4.39453H17.2945L20.1852 12.8125H20.3023L23.193 4.39453H25.0289L20.5367 16.5234C19.9117 18.1934 18.8766 18.9746 17.3727 18.9844ZM30.9188 15V0.859375H35.7234C39.034 0.859375 40.5477 2.83203 40.5477 5.35156C40.5477 7.86133 39.034 9.86328 35.743 9.86328H32.6766V15H30.9188ZM32.6766 8.30078H35.6648C37.9207 8.30078 38.7996 7.03125 38.8094 5.35156C38.7996 3.66211 37.9207 2.42188 35.6453 2.42188H32.6766V8.30078ZM41.6664 11.9922C41.6664 9.56055 43.8148 9.00391 45.6508 8.86719C46.3344 8.81836 48.0434 8.7207 48.5219 8.71094V7.85156C48.5219 6.50391 47.7211 5.72266 46.1195 5.72266C44.7816 5.72266 43.9711 6.33789 43.7367 7.14844H41.9789C42.1937 5.43945 43.8539 4.25781 46.1977 4.25781C47.5844 4.25781 50.1918 4.66797 50.182 8.00781V15H48.5219V13.5547H48.4437C48.0922 14.2676 47.1254 15.2441 45.2797 15.2539C43.268 15.2441 41.6664 14.0625 41.6664 11.9922ZM43.3461 12.0703C43.3559 13.1934 44.2836 13.7598 45.5727 13.75C47.4672 13.7598 48.5219 12.4902 48.5219 11.1523V10.0879C48.0238 10.1172 46.3539 10.2441 45.8461 10.2734C44.3227 10.3711 43.3559 10.9082 43.3461 12.0703ZM56.5742 19.1992C54.0059 19.1992 52.2676 18.0762 52.082 16.1133H53.8398C54.0645 17.1973 55.0703 17.7344 56.5742 17.7344C58.3906 17.7344 59.5039 16.9434 59.5039 15.1953V13.0469H59.3672C59.0059 13.6328 58.332 14.834 56.2812 14.8438C53.7031 14.834 51.7695 12.8906 51.7695 9.55078C51.7695 6.28906 53.6348 4.25781 56.3008 4.25781C58.3613 4.25781 59.0254 5.50781 59.4062 6.07422H59.543V4.39453H61.1836V15.293C61.1738 18.0273 59.1621 19.1992 56.5742 19.1992ZM53.4688 9.60938C53.4688 11.8066 54.5039 13.3398 56.5156 13.3398C58.459 13.3398 59.5332 11.9434 59.543 9.60938C59.5332 7.33398 58.4883 5.76172 56.5156 5.76172C54.4746 5.76172 53.4688 7.4707 53.4688 9.60938ZM67.7125 15.2148C64.6461 15.2246 62.7516 13.0371 62.7516 9.78516C62.7516 6.52344 64.6754 4.25781 67.5563 4.25781C69.7828 4.25781 72.1363 5.625 72.1266 9.55078V10.2539H64.4313C64.5191 12.5 65.8277 13.7305 67.7125 13.7305C68.982 13.7305 69.7828 13.1738 70.1734 12.5195H71.9703C71.4723 14.1309 69.9 15.2246 67.7125 15.2148ZM64.441 8.82812H70.4273C70.4176 7.06055 69.3043 5.74219 67.5563 5.74219C65.7203 5.74219 64.5582 7.1875 64.441 8.82812Z" fill="#FA451E"/>
</svg>
