<svg width="180" height="50" viewBox="0 0 180 50" fill="none" xmlns="http://www.w3.org/2000/svg">
<rect x="0.5" y="0.5" width="179" height="49" rx="24.5" stroke="#FA451E"/>
<path d="M54.0625 17.8594H56.1719L60.9375 29.5H61.1133L65.8789 17.8594H67.9883V32H66.3281V21.3164H66.1914L61.7969 32H60.2344L55.8398 21.3164H55.7227V32H54.0625V17.8594ZM71.3727 35.9844C71.0113 35.9746 70.65 35.9648 70.4352 35.9453V34.4414C70.6109 34.4609 70.9918 34.4707 71.2555 34.4805C71.9391 34.4707 72.5152 34.4316 73.0719 32.8789L73.3844 32.0781L69.4586 21.3945H71.2945L74.1852 29.8125H74.3023L77.193 21.3945H79.0289L74.5367 33.5234C73.9117 35.1934 72.8766 35.9746 71.3727 35.9844ZM84.9188 32V17.8594H89.7234C93.034 17.8594 94.5477 19.832 94.5477 22.3516C94.5477 24.8613 93.034 26.8633 89.743 26.8633H86.6766V32H84.9188ZM86.6766 25.3008H89.6648C91.9207 25.3008 92.7996 24.0312 92.8094 22.3516C92.7996 20.6621 91.9207 19.4219 89.6453 19.4219H86.6766V25.3008ZM95.6664 28.9922C95.6664 26.5605 97.8148 26.0039 99.6508 25.8672C100.334 25.8184 102.043 25.7207 102.522 25.7109V24.8516C102.522 23.5039 101.721 22.7227 100.12 22.7227C98.7816 22.7227 97.9711 23.3379 97.7367 24.1484H95.9789C96.1937 22.4395 97.8539 21.2578 100.198 21.2578C101.584 21.2578 104.192 21.668 104.182 25.0078V32H102.522V30.5547H102.444C102.092 31.2676 101.125 32.2441 99.2797 32.2539C97.268 32.2441 95.6664 31.0625 95.6664 28.9922ZM97.3461 29.0703C97.3559 30.1934 98.2836 30.7598 99.5727 30.75C101.467 30.7598 102.522 29.4902 102.522 28.1523V27.0879C102.024 27.1172 100.354 27.2441 99.8461 27.2734C98.3227 27.3711 97.3559 27.9082 97.3461 29.0703ZM110.574 36.1992C108.006 36.1992 106.268 35.0762 106.082 33.1133H107.84C108.064 34.1973 109.07 34.7344 110.574 34.7344C112.391 34.7344 113.504 33.9434 113.504 32.1953V30.0469H113.367C113.006 30.6328 112.332 31.834 110.281 31.8438C107.703 31.834 105.77 29.8906 105.77 26.5508C105.77 23.2891 107.635 21.2578 110.301 21.2578C112.361 21.2578 113.025 22.5078 113.406 23.0742H113.543V21.3945H115.184V32.293C115.174 35.0273 113.162 36.1992 110.574 36.1992ZM107.469 26.6094C107.469 28.8066 108.504 30.3398 110.516 30.3398C112.459 30.3398 113.533 28.9434 113.543 26.6094C113.533 24.334 112.488 22.7617 110.516 22.7617C108.475 22.7617 107.469 24.4707 107.469 26.6094ZM121.713 32.2148C118.646 32.2246 116.752 30.0371 116.752 26.7852C116.752 23.5234 118.675 21.2578 121.556 21.2578C123.783 21.2578 126.136 22.625 126.127 26.5508V27.2539H118.431C118.519 29.5 119.828 30.7305 121.713 30.7305C122.982 30.7305 123.783 30.1738 124.173 29.5195H125.97C125.472 31.1309 123.9 32.2246 121.713 32.2148ZM118.441 25.8281H124.427C124.418 24.0605 123.304 22.7422 121.556 22.7422C119.72 22.7422 118.558 24.1875 118.441 25.8281Z" fill="#FA451E"/>
</svg>
