<svg width="112" height="50" viewBox="0 0 112 50" fill="none" xmlns="http://www.w3.org/2000/svg">
<rect x="0.5" y="0.5" width="111" height="49" rx="24.5" fill="#FA451E"/>
<rect x="0.5" y="0.5" width="111" height="49" rx="24.5" stroke="#FA451E"/>
<path d="M38.543 24.4805V25.7695H22.7031V24.4805H38.543ZM24.6172 30.418C24.6074 28.4258 26.8633 27.293 30.6133 27.293C34.334 27.293 36.5703 28.4258 36.5898 30.418C36.5703 32.4297 34.334 33.543 30.6133 33.543C26.8633 33.543 24.6074 32.4297 24.6172 30.418ZM24.7148 22.8203V16.9219H36.5703V18.2109H26.2188V21.5703H36.6875V22.8203H24.7148ZM26.1797 30.418C26.1602 31.6387 27.8301 32.332 30.6133 32.332C33.3672 32.332 35.0371 31.6387 35.0469 30.418C35.0371 29.207 33.3672 28.5039 30.6133 28.4844C27.8301 28.5039 26.1602 29.207 26.1797 30.418ZM55.2672 25.7891V27.0586H39.3687V25.7891H46.5562V23.9531H41.4391V19.7148H51.6734V17.918H41.3805V16.668H53.2164V20.8672H42.9625V22.7227H53.5875V23.9531H48.0602V25.7891H55.2672ZM41.1461 29.6367V28.3867H53.3141V33.4258H51.7711V29.6367H41.1461ZM69.5109 16.2188V23.3867H72.4211V24.6562H69.5109V33.582H67.9875V16.2188H69.5109ZM55.9758 20.2812V19.0117H60.4484V16.4336H61.9719V19.0117H66.3078V20.2812H55.9758ZM56.9719 25.7109C56.9621 23.3672 58.759 21.7266 61.2297 21.7266C63.6809 21.7266 65.468 23.3672 65.4875 25.7109C65.468 28.0645 63.6809 29.6953 61.2297 29.6953C58.759 29.6953 56.9621 28.0645 56.9719 25.7109ZM58.4367 25.7109C58.427 27.293 59.6086 28.4062 61.2297 28.3867C62.8312 28.4062 64.0031 27.293 64.0227 25.7109C64.0031 24.1387 62.8312 23.0059 61.2297 23.0156C59.6086 23.0059 58.427 24.1387 58.4367 25.7109ZM87.1141 16.2188V33.582H85.5711V16.2188H87.1141ZM72.9734 29.0703C77.6707 26.8438 80.073 23.5137 80.4148 19.3633H73.7742V18.1133H81.9773C81.9578 23.1035 79.6336 27.5273 73.8133 30.3203L72.9734 29.0703Z" fill="#F7F6F4"/>
</svg>
