<svg width="112" height="50" viewBox="0 0 112 50" fill="none" xmlns="http://www.w3.org/2000/svg">
<rect x="0.5" y="0.5" width="111" height="49" rx="24.5" fill="#FA451E"/>
<rect x="0.5" y="0.5" width="111" height="49" rx="24.5" stroke="#FA451E"/>
<path d="M38.582 26.7461V28.0156H31.3555V33.582H29.8516V28.0156H22.6836V26.7461H38.582ZM24.8125 24.9492V17.0391H36.5898V18.2891H26.3359V20.3203H36.1797V21.5508H26.3359V23.6992H36.7852V24.9492H24.8125ZM55.2867 30.1836V31.4531H39.3883V30.1836H43.8219V26.043H40.8336V24.7734H43.5484V19.1094H40.7945V17.8398H53.7633V19.1094H51.0094V24.7734H53.7242V26.043H50.7359V30.1836H55.2867ZM45.0719 24.7734H49.5055V19.1094H45.0719V24.7734ZM45.3648 30.1836H49.2125V26.043H45.3648V30.1836ZM69.5109 16.2188V23.3867H72.4211V24.6562H69.5109V33.582H67.9875V16.2188H69.5109ZM55.9758 20.2812V19.0117H60.4484V16.4336H61.9719V19.0117H66.3078V20.2812H55.9758ZM56.9719 25.7109C56.9621 23.3672 58.759 21.7266 61.2297 21.7266C63.6809 21.7266 65.468 23.3672 65.4875 25.7109C65.468 28.0645 63.6809 29.6953 61.2297 29.6953C58.759 29.6953 56.9621 28.0645 56.9719 25.7109ZM58.4367 25.7109C58.427 27.293 59.6086 28.4062 61.2297 28.3867C62.8312 28.4062 64.0031 27.293 64.0227 25.7109C64.0031 24.1387 62.8312 23.0059 61.2297 23.0156C59.6086 23.0059 58.427 24.1387 58.4367 25.7109ZM87.1141 16.2188V33.582H85.5711V16.2188H87.1141ZM72.9734 29.0703C77.6707 26.8438 80.073 23.5137 80.4148 19.3633H73.7742V18.1133H81.9773C81.9578 23.1035 79.6336 27.5273 73.8133 30.3203L72.9734 29.0703Z" fill="#F7F6F4"/>
</svg>
