<svg width="66" height="66" viewBox="0 0 66 66" fill="none" xmlns="http://www.w3.org/2000/svg">
<circle cx="33" cy="33" r="33" fill="#FA451E"/>
<mask id="path-2-inside-1_561_3746" fill="white">
<path d="M42 43.379C42 44.1982 41.3359 44.8623 40.5167 44.8623C40.1233 44.8623 39.7461 44.7061 39.4679 44.4279L33.75 38.7109C33.3349 38.2964 32.6619 38.2961 32.2471 38.7109L26.5321 44.4277C26.2539 44.706 25.8766 44.8623 25.4832 44.8623C24.664 44.8623 24 44.1983 24 43.3791V27.5127C24 25.1655 25.9028 23.2627 28.25 23.2627H37.75C40.0972 23.2627 42 25.1655 42 27.5127V43.379Z"/>
</mask>
<path d="M42 43.379C42 44.1982 41.3359 44.8623 40.5167 44.8623C40.1233 44.8623 39.7461 44.7061 39.4679 44.4279L33.75 38.7109C33.3349 38.2964 32.6619 38.2961 32.2471 38.7109L26.5321 44.4277C26.2539 44.706 25.8766 44.8623 25.4832 44.8623C24.664 44.8623 24 44.1983 24 43.3791V27.5127C24 25.1655 25.9028 23.2627 28.25 23.2627H37.75C40.0972 23.2627 42 25.1655 42 27.5127V43.379Z" fill="#F2EEE8"/>
<path d="M39.4679 44.4279L37.9654 45.9307L39.4679 44.4279ZM26.5321 44.4277L25.0293 42.9254L26.5321 44.4277ZM39.4679 44.4279L40.9704 42.9252L35.2525 37.2082L33.75 38.7109L32.2475 40.2137L37.9654 45.9307L39.4679 44.4279ZM32.2471 38.7109L30.7442 37.2086L25.0293 42.9254L26.5321 44.4277L28.0349 45.9301L33.7499 40.2133L32.2471 38.7109ZM24 43.3791H26.125V27.5127H24H21.875V43.3791H24ZM28.25 23.2627V25.3877H37.75V23.2627V21.1377H28.25V23.2627ZM42 27.5127H39.875V43.379H42H44.125V27.5127H42ZM37.75 23.2627V25.3877C38.9236 25.3877 39.875 26.3391 39.875 27.5127H42H44.125C44.125 23.9919 41.2708 21.1377 37.75 21.1377V23.2627ZM24 27.5127H26.125C26.125 26.3391 27.0764 25.3877 28.25 25.3877V23.2627V21.1377C24.7292 21.1377 21.875 23.9919 21.875 27.5127H24ZM33.75 38.7109L35.2516 37.2074C34.0078 35.9651 31.9901 35.9628 30.7445 37.2083L32.2471 38.7109L33.7497 40.2135C33.3337 40.6295 32.662 40.6276 32.2484 40.2145L33.75 38.7109ZM25.4832 44.8623V42.7373C25.8376 42.7373 26.125 43.0247 26.125 43.3791H24H21.875C21.875 45.3719 23.4904 46.9873 25.4832 46.9873V44.8623ZM40.5167 44.8623V42.7373C40.6869 42.7373 40.8501 42.8049 40.9704 42.9252L39.4679 44.4279L37.9654 45.9307C38.6421 46.6072 39.5598 46.9873 40.5167 46.9873V44.8623ZM26.5321 44.4277L25.0293 42.9254C25.1496 42.805 25.3129 42.7373 25.4832 42.7373V44.8623V46.9873C26.4403 46.9873 27.3582 46.607 28.0349 45.9301L26.5321 44.4277ZM40.5167 44.8623V46.9873C42.5095 46.9873 44.125 45.3718 44.125 43.379H42H39.875C39.875 43.0246 40.1623 42.7373 40.5167 42.7373V44.8623Z" fill="#F2EEE8" mask="url(#path-2-inside-1_561_3746)"/>
</svg>
