<svg width="66" height="66" viewBox="0 0 66 66" fill="none" xmlns="http://www.w3.org/2000/svg">
<circle cx="33" cy="33" r="33" fill="#FA451E"/>
<path d="M21.3329 44.294C21.0834 43.8656 21.4798 41.0704 21.7031 39.6441C21.7572 39.2987 22.1814 39.1703 22.4223 39.4237L26.2772 43.4798C26.5133 43.7283 26.3733 44.1368 26.0336 44.183C24.5686 44.3823 21.5864 44.7295 21.3329 44.294Z" fill="#F2EEE8"/>
<path d="M38.7388 22.7484C40.1907 21.3686 42.4863 21.427 43.8661 22.8789C45.246 24.3308 45.1876 26.6264 43.7357 28.0062L27.8949 43.061C27.7247 43.2227 27.4557 43.2159 27.294 43.0458L22.8827 38.4041C22.721 38.234 22.7278 37.965 22.898 37.8033L38.7388 22.7484Z" fill="#F2EEE8"/>
</svg>
