<svg width="22" height="26" viewBox="0 0 22 26" fill="none" xmlns="http://www.w3.org/2000/svg">
<mask id="path-1-inside-1_630_9719" fill="white">
<path d="M21.625 23.8693C21.625 24.9425 20.755 25.8125 19.6818 25.8125C19.1665 25.8125 18.6722 25.6078 18.3078 25.2434L11.75 18.6865C11.3351 18.2716 10.6617 18.2713 10.2471 18.6865L3.69219 25.2432C3.32778 25.6077 2.83347 25.8125 2.31805 25.8125C1.24493 25.8125 0.375 24.9426 0.375 23.8694V4.5625C0.375 2.21529 2.27779 0.3125 4.625 0.3125H17.375C19.7222 0.3125 21.625 2.21529 21.625 4.5625V23.8693Z"/>
</mask>
<path d="M21.625 23.8693C21.625 24.9425 20.755 25.8125 19.6818 25.8125C19.1665 25.8125 18.6722 25.6078 18.3078 25.2434L11.75 18.6865C11.3351 18.2716 10.6617 18.2713 10.2471 18.6865L3.69219 25.2432C3.32778 25.6077 2.83347 25.8125 2.31805 25.8125C1.24493 25.8125 0.375 24.9426 0.375 23.8694V4.5625C0.375 2.21529 2.27779 0.3125 4.625 0.3125H17.375C19.7222 0.3125 21.625 2.21529 21.625 4.5625V23.8693Z" fill="#FA451E"/>
<path d="M18.3078 25.2434L16.8053 26.7461L18.3078 25.2434ZM3.69219 25.2432L5.19499 26.7456L3.69219 25.2432ZM18.3078 25.2434L19.8103 23.7407L13.2525 17.1838L11.75 18.6865L10.2475 20.1892L16.8053 26.7461L18.3078 25.2434ZM10.2471 18.6865L8.74426 17.1841L2.18938 23.7408L3.69219 25.2432L5.19499 26.7456L11.7499 20.1889L10.2471 18.6865ZM0.375 23.8694H2.5V4.5625H0.375H-1.75V23.8694H0.375ZM4.625 0.3125V2.4375H17.375V0.3125V-1.8125H4.625V0.3125ZM21.625 4.5625H19.5V23.8693H21.625H23.75V4.5625H21.625ZM17.375 0.3125V2.4375C18.5486 2.4375 19.5 3.38889 19.5 4.5625H21.625H23.75C23.75 1.04169 20.8958 -1.8125 17.375 -1.8125V0.3125ZM0.375 4.5625H2.5C2.5 3.3889 3.4514 2.4375 4.625 2.4375V0.3125V-1.8125C1.10418 -1.8125 -1.75 1.04169 -1.75 4.5625H0.375ZM11.75 18.6865L13.2526 17.1839C12.0087 15.94 9.98914 15.9376 8.74349 17.1849L10.2471 18.6865L11.7506 20.1881C11.3343 20.605 10.6614 20.6032 10.2474 20.1891L11.75 18.6865ZM2.31805 25.8125V23.6875C2.41854 23.6875 2.5 23.769 2.5 23.8694H0.375H-1.75C-1.75 26.1162 0.0713294 27.9375 2.31805 27.9375V25.8125ZM19.6818 25.8125V23.6875C19.73 23.6875 19.7762 23.7066 19.8103 23.7407L18.3078 25.2434L16.8053 26.7461C17.5682 27.509 18.6029 27.9375 19.6818 27.9375V25.8125ZM3.69219 25.2432L2.18938 23.7408C2.2235 23.7067 2.26979 23.6875 2.31805 23.6875V25.8125V27.9375C3.39716 27.9375 4.43205 27.5087 5.19499 26.7456L3.69219 25.2432ZM19.6818 25.8125V27.9375C21.9286 27.9375 23.75 26.1161 23.75 23.8693H21.625H19.5C19.5 23.7689 19.5814 23.6875 19.6818 23.6875V25.8125Z" fill="#FA451E" mask="url(#path-1-inside-1_630_9719)"/>
</svg>
