<svg width="18" height="22" viewBox="0 0 18 22" fill="none" xmlns="http://www.w3.org/2000/svg">
<mask id="path-1-inside-1_561_3052" fill="white">
<path d="M18 20.379C18 21.1982 17.3359 21.8623 16.5167 21.8623C16.1233 21.8623 15.7461 21.7061 15.4679 21.4279L9.75 15.7109C9.3349 15.2964 8.6619 15.2961 8.24707 15.7109L2.53209 21.4277C2.25393 21.706 1.87661 21.8623 1.48317 21.8623C0.664038 21.8623 0 21.1983 0 20.3791V4.51269C0 2.16548 1.90279 0.262695 4.25 0.262695H13.75C16.0972 0.262695 18 2.16549 18 4.5127V20.379Z"/>
</mask>
<path d="M18 20.379C18 21.1982 17.3359 21.8623 16.5167 21.8623C16.1233 21.8623 15.7461 21.7061 15.4679 21.4279L9.75 15.7109C9.3349 15.2964 8.6619 15.2961 8.24707 15.7109L2.53209 21.4277C2.25393 21.706 1.87661 21.8623 1.48317 21.8623C0.664038 21.8623 0 21.1983 0 20.3791V4.51269C0 2.16548 1.90279 0.262695 4.25 0.262695H13.75C16.0972 0.262695 18 2.16549 18 4.5127V20.379Z" fill="#F2EEE8"/>
<path d="M15.4679 21.4279L13.9654 22.9307L15.4679 21.4279ZM2.53209 21.4277L1.02925 19.9254L2.53209 21.4277ZM15.4679 21.4279L16.9704 19.9252L11.2525 14.2082L9.75 15.7109L8.24752 17.2137L13.9654 22.9307L15.4679 21.4279ZM8.24707 15.7109L6.74423 14.2086L1.02925 19.9254L2.53209 21.4277L4.03494 22.9301L9.74991 17.2133L8.24707 15.7109ZM0 20.3791H2.125V4.51269H0H-2.125V20.3791H0ZM4.25 0.262695V2.3877H13.75V0.262695V-1.8623H4.25V0.262695ZM18 4.5127H15.875V20.379H18H20.125V4.5127H18ZM13.75 0.262695V2.3877C14.9236 2.3877 15.875 3.33909 15.875 4.5127H18H20.125C20.125 0.99188 17.2708 -1.8623 13.75 -1.8623V0.262695ZM0 4.51269H2.125C2.125 3.33909 3.07639 2.3877 4.25 2.3877V0.262695V-1.8623C0.729185 -1.8623 -2.125 0.99188 -2.125 4.51269H0ZM9.75 15.7109L11.2516 14.2074C10.0078 12.9651 7.99005 12.9628 6.74447 14.2083L8.24707 15.7109L9.74967 17.2135C9.33375 17.6295 8.66202 17.6276 8.24837 17.2145L9.75 15.7109ZM1.48317 21.8623V19.7373C1.83764 19.7373 2.125 20.0247 2.125 20.3791H0H-2.125C-2.125 22.3719 -0.509567 23.9873 1.48317 23.9873V21.8623ZM16.5167 21.8623V19.7373C16.6869 19.7373 16.8501 19.8049 16.9704 19.9252L15.4679 21.4279L13.9654 22.9307C14.6421 23.6072 15.5598 23.9873 16.5167 23.9873V21.8623ZM2.53209 21.4277L1.02925 19.9254C1.14963 19.805 1.31291 19.7373 1.48317 19.7373V21.8623V23.9873C2.44031 23.9873 3.35824 23.607 4.03494 22.9301L2.53209 21.4277ZM16.5167 21.8623V23.9873C18.5095 23.9873 20.125 22.3718 20.125 20.379H18H15.875C15.875 20.0246 16.1623 19.7373 16.5167 19.7373V21.8623Z" fill="#F2EEE8" mask="url(#path-1-inside-1_561_3052)"/>
</svg>
