<svg width="28" height="25" viewBox="0 0 28 25" fill="none" xmlns="http://www.w3.org/2000/svg">
<path d="M22.5 1.375V0.3125V1.375ZM26.75 5.625H27.8125H26.75ZM22.5 20.5V21.5625V20.5ZM6.78125 20.5V19.4375C6.60455 19.4375 6.43064 19.4816 6.27526 19.5657L6.78125 20.5ZM3.8457 22.0898L4.35152 23.0242L4.35169 23.0241L3.8457 22.0898ZM2.22754 22.9658L1.16543 22.9371C1.15516 23.3165 1.34803 23.6725 1.67142 23.8712C1.99481 24.0698 2.39959 24.0809 2.73335 23.9002L2.22754 22.9658ZM2.27734 21.126L1.21524 21.097L1.21523 21.0972L2.27734 21.126ZM2.33301 19.083L3.39511 19.1119C3.40251 18.8406 3.30574 18.5766 3.12466 18.3744L2.33301 19.083ZM1.25 16.25H0.1875H1.25ZM5.5 1.375V0.3125V1.375ZM22.5 1.375V2.4375C24.2604 2.4375 25.6875 3.86459 25.6875 5.625H26.75H27.8125C27.8125 2.69099 25.434 0.3125 22.5 0.3125V1.375ZM26.75 5.625H25.6875V16.25H26.75H27.8125V5.625H26.75ZM26.75 16.25H25.6875C25.6875 18.0104 24.2604 19.4375 22.5 19.4375V20.5V21.5625C25.434 21.5625 27.8125 19.184 27.8125 16.25H26.75ZM22.5 20.5V19.4375H6.78125V20.5V21.5625H22.5V20.5ZM6.78125 20.5L6.27526 19.5657L3.33971 21.1556L3.8457 22.0898L4.35169 23.0241L7.28724 21.4343L6.78125 20.5ZM3.8457 22.0898L3.33989 21.1555L1.72172 22.0314L2.22754 22.9658L2.73335 23.9002L4.35152 23.0242L3.8457 22.0898ZM2.22754 22.9658L3.28965 22.9946L3.33945 21.1547L2.27734 21.126L1.21523 21.0972L1.16543 22.9371L2.22754 22.9658ZM2.27734 21.126L3.33945 21.1549L3.39511 19.1119L2.33301 19.083L1.2709 19.0541L1.21524 21.097L2.27734 21.126ZM2.33301 19.083L3.12466 18.3744C2.61882 17.8093 2.3125 17.0666 2.3125 16.25H1.25H0.1875C0.1875 17.6107 0.701007 18.8529 1.54135 19.7917L2.33301 19.083ZM1.25 16.25H2.3125V5.625H1.25H0.1875V16.25H1.25ZM1.25 5.625H2.3125C2.3125 3.86459 3.73959 2.4375 5.5 2.4375V1.375V0.3125C2.56599 0.3125 0.1875 2.69099 0.1875 5.625H1.25ZM5.5 1.375V2.4375H22.5V1.375V0.3125H5.5V1.375Z" fill="#FA451E"/>
<circle cx="9.75" cy="10.9375" r="1.0625" fill="#FA451E"/>
<circle cx="14" cy="10.9375" r="1.0625" fill="#FA451E"/>
<circle cx="18.25" cy="10.9375" r="1.0625" fill="#FA451E"/>
</svg>
