<svg width="26" height="24" viewBox="0 0 26 24" fill="none" xmlns="http://www.w3.org/2000/svg">
<path d="M18.5046 1.08423L18.5047 0.0217285H18.5046V1.08423ZM24.5662 8.62817L25.6287 8.62819V8.62817H24.5662ZM13.1306 22.2053L13.1702 23.2671L13.1871 23.2665L13.2039 23.2653L13.1306 22.2053ZM12.9998 22.2102L12.9996 23.2727L13.0195 23.2727L13.0394 23.272L12.9998 22.2102ZM1.66675 8.62817H0.604248V8.62819L1.66675 8.62817ZM7.72925 1.08423L7.72925 0.0217285H7.72925V1.08423ZM12.9998 3.62427L12.2197 4.34564L13.003 5.19268L13.7828 4.34244L12.9998 3.62427ZM13.2917 3.30591L12.5142 2.58181L12.5087 2.58773L13.2917 3.30591ZM18.5046 1.08423L18.5046 2.14673C21.0882 2.14683 23.5037 4.70697 23.5037 8.62817H24.5662H25.6287C25.6287 3.97148 22.6565 0.0218967 18.5047 0.0217285L18.5046 1.08423ZM24.5662 8.62817L23.5037 8.62816C23.5036 11.7317 21.5857 14.8199 19.1635 17.2286C17.969 18.4165 16.6942 19.3954 15.5631 20.0827C14.3894 20.7959 13.5019 21.1146 13.0573 21.1454L13.1306 22.2053L13.2039 23.2653C14.1785 23.1979 15.43 22.6501 16.6666 21.8987C17.9458 21.1214 19.3524 20.0376 20.6619 18.7354C23.248 16.1637 25.6286 12.5615 25.6287 8.62819L24.5662 8.62817ZM13.1306 22.2053L13.091 21.1436L12.9601 21.1484L12.9998 22.2102L13.0394 23.272L13.1702 23.2671L13.1306 22.2053ZM12.9998 22.2102L13 21.1477C12.8491 21.1477 12.5587 21.0964 12.1204 20.9279C11.6972 20.7652 11.1949 20.5163 10.6398 20.1825C9.52971 19.5149 8.26535 18.5421 7.07493 17.349C4.66277 14.9316 2.72929 11.7921 2.72925 8.62816L1.66675 8.62817L0.604248 8.62819C0.604298 12.6123 2.99001 16.2636 5.57067 18.85C6.87666 20.1589 8.27713 21.2413 9.54462 22.0035C10.1783 22.3846 10.7929 22.6942 11.3579 22.9114C11.9077 23.1227 12.4768 23.2726 12.9996 23.2727L12.9998 22.2102ZM1.66675 8.62817H2.72925C2.72925 4.70707 5.14542 2.14673 7.72925 2.14673V1.08423V0.0217285C3.57741 0.0217285 0.604248 3.9712 0.604248 8.62817H1.66675ZM7.72925 1.08423L7.72924 2.14673C9.20459 2.14674 10.1477 2.53825 10.7837 2.964C11.4597 3.41661 11.8082 3.90064 12.2197 4.34564L12.9998 3.62427L13.7798 2.9029C13.5178 2.61948 12.9148 1.83351 11.9659 1.19821C10.9768 0.536043 9.62152 0.0217391 7.72925 0.0217285L7.72925 1.08423ZM12.9998 3.62427L13.7828 4.34244L14.0748 4.02408L13.2917 3.30591L12.5087 2.58773L12.2167 2.90609L12.9998 3.62427ZM13.2917 3.30591L14.0693 4.02998C14.7418 3.30782 15.9691 2.14673 18.5046 2.14673V1.08423V0.0217285C15.1464 0.0217285 13.3963 1.63456 12.5142 2.58183L13.2917 3.30591Z" fill="#FA451E"/>
</svg>
