<svg width="26" height="24" viewBox="0 0 26 24" fill="none" xmlns="http://www.w3.org/2000/svg">
<path d="M18.5046 1.08374C21.8722 1.08393 24.566 4.33896 24.5662 8.62769C24.5662 15.7761 15.694 22.2097 12.9998 22.2097V22.2107C10.3053 22.2103 1.66707 15.7767 1.66675 8.62866C1.66675 4.33962 4.36141 1.08472 7.72925 1.08472C11.097 1.08477 12.3262 2.89643 12.9998 3.62476V3.62378C13.6734 2.89538 15.137 1.08374 18.5046 1.08374Z" fill="#FA451E"/>
<path d="M18.5046 1.08374L18.5047 0.0212402H18.5046V1.08374ZM24.5662 8.62769H25.6287V8.62765L24.5662 8.62769ZM12.9998 22.2097V21.1472H11.9373V22.2097H12.9998ZM12.9998 22.2107L12.9996 23.2732L14.0623 23.2733V22.2107H12.9998ZM1.66675 8.62866H0.604248V8.62871L1.66675 8.62866ZM7.72925 1.08472L7.72927 0.0222168H7.72925V1.08472ZM12.9998 3.62476L12.2197 4.34615L14.0623 6.33853V3.62476H12.9998ZM12.9998 3.62378L12.2197 2.90239L11.9373 3.2078V3.62378H12.9998ZM18.5046 1.08374L18.5046 2.14624C21.088 2.14639 23.5035 4.70668 23.5037 8.62772L24.5662 8.62769L25.6287 8.62765C25.6285 3.97123 22.6564 0.0214735 18.5047 0.0212402L18.5046 1.08374ZM24.5662 8.62769H23.5037C23.5037 11.7814 21.523 14.9183 19.0499 17.3402C17.8306 18.5343 16.5366 19.5087 15.4034 20.1779C14.8367 20.5125 14.3243 20.7624 13.8934 20.9259C13.4466 21.0954 13.1518 21.1472 12.9998 21.1472V22.2097V23.2722C13.5213 23.2722 14.0931 23.123 14.6472 22.9127C15.2172 22.6964 15.8399 22.3879 16.4839 22.0077C17.7719 21.2471 19.2012 20.1663 20.5367 18.8585C23.1733 16.2765 25.6287 12.6224 25.6287 8.62769H24.5662ZM12.9998 22.2097H11.9373V22.2107H12.9998H14.0623V22.2097H12.9998ZM12.9998 22.2107L12.9999 21.1482C12.849 21.1482 12.5588 21.0969 12.1204 20.9284C11.6973 20.7658 11.195 20.5168 10.6399 20.183C9.52984 19.5155 8.2655 18.5427 7.07508 17.3496C4.66293 14.9321 2.72939 11.7926 2.72925 8.62861L1.66675 8.62866L0.604248 8.62871C0.604426 12.6128 2.99016 16.2641 5.57081 18.8505C6.8768 20.1594 8.27724 21.2418 9.54471 22.0041C10.1784 22.3851 10.793 22.6947 11.358 22.9119C11.9078 23.1233 12.4769 23.2731 12.9996 23.2732L12.9998 22.2107ZM1.66675 8.62866H2.72925C2.72925 4.70756 5.14542 2.14722 7.72925 2.14722V1.08472V0.0222168C3.57741 0.0222168 0.604248 3.97169 0.604248 8.62866H1.66675ZM7.72925 1.08472L7.72923 2.14722C9.20463 2.14724 10.1478 2.53877 10.7837 2.96453C11.4597 3.41715 11.8082 3.90115 12.2197 4.34615L12.9998 3.62476L13.7798 2.90336C13.5178 2.62004 12.9148 1.83404 11.9659 1.19875C10.9769 0.536574 9.62158 0.0222484 7.72927 0.0222168L7.72925 1.08472ZM12.9998 3.62476H14.0623V3.62378H12.9998H11.9373V3.62476H12.9998ZM12.9998 3.62378L13.7798 4.34517C14.1411 3.95451 14.5775 3.43595 15.3047 2.98182C16.0129 2.53957 17.0266 2.14624 18.5046 2.14624V1.08374V0.0212402C16.6149 0.0212402 15.2131 0.533725 14.1791 1.1794C13.1642 1.81319 12.532 2.56465 12.2197 2.90239L12.9998 3.62378Z" fill="#FA451E"/>
</svg>
