<svg width="29" height="27" viewBox="0 0 29 27" fill="none" xmlns="http://www.w3.org/2000/svg">
<path d="M3.33285 24.294C3.08341 23.8656 3.47984 21.0704 3.70314 19.6441C3.75722 19.2987 4.18143 19.1703 4.4223 19.4237L8.27715 23.4798C8.51328 23.7283 8.37325 24.1368 8.03361 24.183C6.56859 24.3823 3.58637 24.7295 3.33285 24.294Z" fill="#F2EEE8"/>
<path d="M20.7388 2.74845C22.1907 1.36859 24.4863 1.42699 25.8661 2.87889C27.246 4.33078 27.1876 6.62637 25.7357 8.00622L9.89487 23.061C9.72473 23.2227 9.45572 23.2159 9.29402 23.0458L4.88269 18.4041C4.72099 18.234 4.72784 17.965 4.89797 17.8033L20.7388 2.74845Z" fill="#F2EEE8"/>
</svg>
