<svg width="30" height="21" viewBox="0 0 30 21" fill="none" xmlns="http://www.w3.org/2000/svg">
<mask id="path-1-inside-1_630_9709" fill="white">
<path d="M14.9989 0.438477C21.1362 0.438477 26.4322 3.53721 28.8919 8.01641C29.69 9.46976 29.69 11.2412 28.8919 12.6945C26.4321 17.1737 21.1362 20.2725 14.9989 20.2725C8.86163 20.2724 3.56569 17.1736 1.10592 12.6945C0.307808 11.2412 0.30779 9.46977 1.10588 8.01643C3.5656 3.53722 8.86156 0.438492 14.9989 0.438477Z"/>
</mask>
<path d="M14.9989 0.438477V-1.68652H14.9989L14.9989 0.438477ZM14.9989 20.2725L14.9989 22.3975H14.9989V20.2725ZM1.10592 12.6945L2.96854 11.6716L1.10592 12.6945ZM1.10588 8.01643L-0.756752 6.99358L1.10588 8.01643ZM28.8919 12.6945L27.0292 11.6716L28.8919 12.6945ZM14.9989 0.438477V2.56348C20.4502 2.56348 24.9839 5.31471 27.0293 9.03926L28.8919 8.01641L30.7545 6.99355C27.8804 1.75971 21.8223 -1.68652 14.9989 -1.68652V0.438477ZM28.8919 12.6945L27.0292 11.6716C24.9839 15.3962 20.4501 18.1475 14.9989 18.1475V20.2725V22.3975C21.8222 22.3975 27.8803 18.9511 30.7545 13.7174L28.8919 12.6945ZM14.9989 20.2725L14.9989 18.1475C9.54772 18.1474 5.01391 15.3962 2.96854 11.6716L1.10592 12.6945L-0.7567 13.7174C2.11748 18.9511 8.17554 22.3974 14.9989 22.3975L14.9989 20.2725ZM1.10588 8.01643L2.96851 9.03928C5.01382 5.31473 9.54762 2.56349 14.9989 2.56348L14.9989 0.438477L14.9989 -1.68652C8.17549 -1.68651 2.11738 1.75972 -0.756752 6.99358L1.10588 8.01643ZM1.10592 12.6945L2.96854 11.6716C2.52026 10.8553 2.52025 9.85557 2.96851 9.03928L1.10588 8.01643L-0.756752 6.99358C-1.90467 9.08397 -1.90464 11.627 -0.7567 13.7174L1.10592 12.6945ZM28.8919 8.01641L27.0293 9.03926C27.4775 9.85556 27.4775 10.8553 27.0292 11.6716L28.8919 12.6945L30.7545 13.7174C31.9024 11.627 31.9025 9.08396 30.7545 6.99355L28.8919 8.01641Z" fill="#FA451E" mask="url(#path-1-inside-1_630_9709)"/>
<circle cx="15" cy="10.355" r="5.3125" stroke="#FA451E" stroke-width="2.125"/>
</svg>
