<svg width="10" height="13" viewBox="0 0 10 13" fill="none" xmlns="http://www.w3.org/2000/svg">
<mask id="path-1-inside-1_561_10885" fill="white">
<path d="M10 11.5871C10 12.0921 9.59064 12.5015 9.08568 12.5015C8.84323 12.5015 8.61071 12.4052 8.43925 12.2338L5.35254 9.14795C5.1573 8.95271 4.84075 8.95271 4.64551 9.14795L1.56075 12.2336C1.3893 12.4051 1.15672 12.5015 0.914212 12.5015C0.409307 12.5015 0 12.0922 0 11.5873V2.50147C0 1.3969 0.895431 0.501465 2 0.501465H8C9.10457 0.501465 10 1.3969 10 2.50146V11.5871Z"/>
</mask>
<path d="M10 11.5871C10 12.0921 9.59064 12.5015 9.08568 12.5015C8.84323 12.5015 8.61071 12.4052 8.43925 12.2338L5.35254 9.14795C5.1573 8.95271 4.84075 8.95271 4.64551 9.14795L1.56075 12.2336C1.3893 12.4051 1.15672 12.5015 0.914212 12.5015C0.409307 12.5015 0 12.0922 0 11.5873V2.50147C0 1.3969 0.895431 0.501465 2 0.501465H8C9.10457 0.501465 10 1.3969 10 2.50146V11.5871Z" fill="#F7F6F4"/>
<path d="M8.43925 12.2338L9.14625 11.5266L8.43925 12.2338ZM8.43925 12.2338L9.14625 11.5266L6.05954 8.44074L5.35254 9.14795L4.64553 9.85516L7.73224 12.941L8.43925 12.2338ZM4.64551 9.14795L3.9383 8.44095L0.853542 11.5266L1.56075 12.2336L2.26796 12.9406L5.35272 9.85495L4.64551 9.14795ZM0 11.5873H1V2.50147H0H-1V11.5873H0ZM2 0.501465V1.50146H8V0.501465V-0.498535H2V0.501465ZM10 2.50146H9V11.5871H10H11V2.50146H10ZM8 0.501465V1.50146C8.55229 1.50146 9 1.94918 9 2.50146H10H11C11 0.844611 9.65685 -0.498535 8 -0.498535V0.501465ZM0 2.50147H1C1 1.94918 1.44772 1.50146 2 1.50146V0.501465V-0.498535C0.343146 -0.498535 -1 0.844611 -1 2.50147H0ZM5.35254 9.14795L6.05965 8.44084C5.47388 7.85508 4.52417 7.85508 3.9384 8.44084L4.64551 9.14795L5.35261 9.85506C5.15733 10.0503 4.84072 10.0503 4.64543 9.85506L5.35254 9.14795ZM0.914212 12.5015V11.5015C0.961591 11.5015 1 11.5399 1 11.5873H0H-1C-1 12.6444 -0.142978 13.5015 0.914212 13.5015V12.5015ZM9.08568 12.5015V11.5015C9.1084 11.5015 9.13019 11.5105 9.14625 11.5266L8.43925 12.2338L7.73224 12.941C8.09123 13.2999 8.57806 13.5015 9.08568 13.5015V12.5015ZM1.56075 12.2336L0.853542 11.5266C0.869631 11.5105 0.891455 11.5015 0.914212 11.5015V12.5015V13.5015C1.42199 13.5015 1.90896 13.2997 2.26796 12.9406L1.56075 12.2336ZM9.08568 12.5015V13.5015C10.1429 13.5015 11 12.6444 11 11.5871H10H9C9 11.5398 9.03836 11.5015 9.08568 11.5015V12.5015Z" fill="#F7F6F4" mask="url(#path-1-inside-1_561_10885)"/>
</svg>
