<svg width="14" height="12" viewBox="0 0 14 12" fill="none" xmlns="http://www.w3.org/2000/svg">
<path d="M11 1.00146V0.501465V1.00146ZM13 3.00146H13.5H13ZM11 10.0015V10.5015V10.0015ZM3.60352 10.0015V9.50146C3.52039 9.50146 3.43858 9.52219 3.36548 9.56176L3.60352 10.0015ZM2.22168 10.7495L2.4596 11.1893L2.45971 11.1892L2.22168 10.7495ZM1.45996 11.1616L0.96016 11.1475C0.95512 11.3261 1.04578 11.4939 1.19796 11.5875C1.35015 11.6811 1.54073 11.6864 1.69788 11.6014L1.45996 11.1616ZM1.48438 10.2964L1.98418 10.3105L1.98419 10.3101L1.48438 10.2964ZM1.51074 9.33252L2.01056 9.34619C2.01405 9.21854 1.96856 9.09438 1.88343 8.99919L1.51074 9.33252ZM1 8.00146H0.5H1ZM3 1.00146V0.501465V1.00146ZM11 1.00146V1.50146C11.8284 1.50146 12.5 2.17304 12.5 3.00146H13H13.5C13.5 1.62075 12.3807 0.501465 11 0.501465V1.00146ZM13 3.00146H12.5V8.00146H13H13.5V3.00146H13ZM13 8.00146H12.5C12.5 8.82989 11.8284 9.50146 11 9.50146V10.0015V10.5015C12.3807 10.5015 13.5 9.38218 13.5 8.00146H13ZM11 10.0015V9.50146H3.60352V10.0015V10.5015H11V10.0015ZM3.60352 10.0015L3.36548 9.56176L1.98365 10.3098L2.22168 10.7495L2.45971 11.1892L3.84155 10.4412L3.60352 10.0015ZM2.22168 10.7495L1.98376 10.3097L1.22204 10.7219L1.45996 11.1616L1.69788 11.6014L2.4596 11.1893L2.22168 10.7495ZM1.45996 11.1616L1.95976 11.1757L1.98418 10.3105L1.48438 10.2964L0.984574 10.2823L0.96016 11.1475L1.45996 11.1616ZM1.48438 10.2964L1.98419 10.3101L2.01056 9.34619L1.51074 9.33252L1.01093 9.31885L0.984562 10.2827L1.48438 10.2964ZM1.51074 9.33252L1.88343 8.99919C1.64459 8.73215 1.5 8.38399 1.5 8.00146H1H0.5C0.5 8.6429 0.744074 9.22534 1.13806 9.66584L1.51074 9.33252ZM1 8.00146H1.5V3.00146H1H0.5V8.00146H1ZM1 3.00146H1.5C1.5 2.17304 2.17157 1.50146 3 1.50146V1.00146V0.501465C1.61929 0.501465 0.5 1.62075 0.5 3.00146H1ZM3 1.00146V1.50146H11V1.00146V0.501465H3V1.00146Z" fill="#F7F6F4"/>
<circle cx="5" cy="5.50146" r="0.5" fill="#F7F6F4"/>
<circle cx="7" cy="5.50146" r="0.5" fill="#F7F6F4"/>
<circle cx="9" cy="5.50146" r="0.5" fill="#F7F6F4"/>
</svg>
