<svg width="12" height="12" viewBox="0 0 12 12" fill="none" xmlns="http://www.w3.org/2000/svg">
<path d="M8.5625 1.39307C10.1637 1.39307 11.4452 2.87326 11.4453 4.82373C11.4453 7.97314 7.53784 10.8179 6.12891 10.9927L6.00098 11.0015C4.71936 11.0007 0.556641 8.07438 0.556641 4.82373C0.556782 2.87326 1.83821 1.39307 3.43945 1.39307C5.04032 1.39311 5.68065 2.21696 6.00098 2.54834L6.31055 2.22803C6.70085 1.85653 7.36149 1.3931 8.5625 1.39307Z" fill="#FA451E"/>
<path d="M8.5625 1.39307V0.893066H8.56249L8.5625 1.39307ZM11.4453 4.82373H11.9453V4.82369L11.4453 4.82373ZM6.12891 10.9927L6.16318 11.4915L6.17685 11.4906L6.19046 11.4889L6.12891 10.9927ZM6.00098 11.0015L6.00069 11.5015L6.01799 11.5015L6.03525 11.5003L6.00098 11.0015ZM0.556641 4.82373L0.0566406 4.82369V4.82373H0.556641ZM3.43945 1.39307L3.43947 0.893066H3.43945V1.39307ZM6.00098 2.54834L5.64148 2.89585L6.00101 3.26778L6.36051 2.89581L6.00098 2.54834ZM6.31055 2.22803L5.96582 1.86586L5.95827 1.87305L5.95102 1.88055L6.31055 2.22803ZM8.5625 1.39307V1.89307C9.81346 1.89307 10.9452 3.06891 10.9453 4.82377L11.4453 4.82373L11.9453 4.82369C11.9452 2.67761 10.514 0.893066 8.5625 0.893066V1.39307ZM11.4453 4.82373H10.9453C10.9453 6.19983 10.0809 7.57656 8.96601 8.66609C8.41679 9.20279 7.82682 9.64944 7.29573 9.96979C6.75024 10.2988 6.31438 10.4658 6.06736 10.4965L6.12891 10.9927L6.19046 11.4889C6.6479 11.4321 7.22882 11.178 7.81225 10.8261C8.41008 10.4655 9.06114 9.97131 9.66492 9.3813C10.856 8.2174 11.9453 6.59704 11.9453 4.82373H11.4453ZM6.12891 10.9927L6.09464 10.4939L5.96671 10.5026L6.00098 11.0015L6.03525 11.5003L6.16318 11.4915L6.12891 10.9927ZM6.00098 11.0015L6.00126 10.5015C5.81952 10.5014 5.41624 10.3773 4.85725 10.0586C4.32312 9.75413 3.71474 9.31102 3.14213 8.76839C1.97891 7.66608 1.05664 6.245 1.05664 4.82373H0.556641H0.0566406C0.0566406 6.65311 1.21573 8.32054 2.45428 9.49425C3.08255 10.0896 3.75515 10.5814 4.36198 10.9274C4.94396 11.2592 5.54162 11.5012 6.00069 11.5015L6.00098 11.0015ZM0.556641 4.82373L1.05664 4.82377C1.05677 3.06891 2.1885 1.89307 3.43945 1.89307V1.39307V0.893066C1.48792 0.893066 0.0567962 2.67761 0.0566406 4.82369L0.556641 4.82373ZM3.43945 1.39307L3.43944 1.89307C4.14706 1.89309 4.61633 2.07322 4.93753 2.27176C5.27085 2.4778 5.45876 2.70682 5.64148 2.89585L6.00098 2.54834L6.36047 2.20083C6.22286 2.05847 5.93045 1.70989 5.46331 1.42114C4.98405 1.1249 4.33272 0.893091 3.43947 0.893066L3.43945 1.39307ZM6.00098 2.54834L6.36051 2.89581L6.67008 2.5755L6.31055 2.22803L5.95102 1.88055L5.64145 2.20087L6.00098 2.54834ZM6.31055 2.22803L6.65527 2.5902C6.97386 2.28695 7.51645 1.8931 8.56251 1.89307L8.5625 1.39307L8.56249 0.893066C7.20654 0.893104 6.42783 1.42611 5.96582 1.86586L6.31055 2.22803Z" fill="#FA451E"/>
</svg>
