<svg width="16" height="16" viewBox="0 0 16 16" fill="none" xmlns="http://www.w3.org/2000/svg">
<g clip-path="url(#clip0_644_9806)">
<path d="M7.42285 2.72803C7.70092 2.32285 8.29908 2.32285 8.57715 2.72803L10.168 5.04932C10.3889 5.3715 10.7142 5.60769 11.0889 5.71826L13.7871 6.51416C14.2588 6.6532 14.4442 7.22202 14.1445 7.61182L12.4287 9.84131C12.1903 10.1512 12.0664 10.5344 12.0771 10.9253L12.1543 13.7368C12.1678 14.2285 11.6831 14.5803 11.2197 14.4155L8.56934 13.4731C8.20108 13.3423 7.79892 13.3423 7.43066 13.4731L4.78027 14.4155C4.31686 14.5803 3.83218 14.2285 3.8457 13.7368L3.92285 10.9253C3.9336 10.5344 3.80974 10.1512 3.57129 9.84131L1.85547 7.61182C1.55581 7.22202 1.74123 6.6532 2.21289 6.51416L4.91113 5.71826C5.28584 5.60769 5.61107 5.37151 5.83203 5.04932L7.42285 2.72803Z" stroke="#FA451E"/>
</g>
<defs>
<clipPath id="clip0_644_9806">
<rect width="16" height="16" fill="white" transform="translate(0 0.00146484)"/>
</clipPath>
</defs>
</svg>
