<svg width="16" height="16" viewBox="0 0 16 16" fill="none" xmlns="http://www.w3.org/2000/svg">
<path d="M8 0.00146484C12.4183 0.00146484 16 3.58319 16 8.00146C16 12.4197 12.4183 16.0015 8 16.0015C3.58172 16.0015 0 12.4197 0 8.00146C0 3.58319 3.58172 0.00146484 8 0.00146484ZM8 2.27197C7.57045 2.27197 7.22266 2.61976 7.22266 3.04932V8.12842C7.22283 8.80325 7.76948 9.35102 8.44434 9.35107H11.4287L11.5078 9.34717C11.9001 9.30749 12.2059 8.97542 12.2061 8.57275C12.2059 8.17013 11.9 7.83902 11.5078 7.79932L11.4287 7.79541H8.77734V3.04932C8.77734 2.61976 8.42955 2.27197 8 2.27197Z" fill="#FA451E"/>
</svg>
