<svg width="14" height="10" viewBox="0 0 14 10" fill="none" xmlns="http://www.w3.org/2000/svg">
<mask id="path-1-inside-1_561_10875" fill="white">
<path d="M6.99995 0.501465C9.88773 0.501553 12.3792 1.95995 13.5367 4.06757C13.9124 4.75159 13.9124 5.58533 13.5368 6.26937C12.3794 8.37707 9.88786 9.83536 6.99995 9.83545C4.11182 9.83545 1.61965 8.37713 0.462109 6.26928C0.086498 5.5853 0.0865279 4.75163 0.462173 4.06766C1.6198 1.9599 4.11196 0.501465 6.99995 0.501465Z"/>
</mask>
<path d="M6.99995 0.501465L6.99998 -0.498535H6.99995V0.501465ZM6.99995 9.83545V10.8354H6.99998L6.99995 9.83545ZM0.462109 6.26928L-0.41442 6.75063L0.462109 6.26928ZM13.5367 4.06757L14.4132 3.58619L13.5367 4.06757ZM13.5368 6.26937L12.6602 5.78804L13.5368 6.26937ZM6.99995 0.501465L6.99992 1.50146C9.5647 1.50154 11.6976 2.79629 12.6602 4.54895L13.5367 4.06757L14.4132 3.58619C13.0608 1.12362 10.2108 -0.498438 6.99998 -0.498535L6.99995 0.501465ZM13.5368 6.26937L12.6602 5.78804C11.6978 7.5407 9.56488 8.83537 6.99992 8.83545L6.99995 9.83545L6.99998 10.8354C10.2109 10.8354 13.0609 9.21344 14.4133 6.75071L13.5368 6.26937ZM6.99995 9.83545V8.83545C4.43471 8.83545 2.30117 7.54068 1.33864 5.78793L0.462109 6.26928L-0.41442 6.75063C0.93812 9.21358 3.78894 10.8354 6.99995 10.8354V9.83545ZM0.462173 4.06766L1.33868 4.54906C2.30132 2.79631 4.43489 1.50146 6.99995 1.50146V0.501465V-0.498535C3.78902 -0.498535 0.938277 1.12348 -0.414332 3.58627L0.462173 4.06766ZM0.462109 6.26928L1.33864 5.78793C1.12767 5.40376 1.12768 4.93323 1.33868 4.54906L0.462173 4.06766L-0.414332 3.58627C-0.954624 4.57002 -0.954672 5.76684 -0.41442 6.75063L0.462109 6.26928ZM13.5367 4.06757L12.6602 4.54895C12.8712 4.93319 12.8712 5.4038 12.6602 5.78804L13.5368 6.26937L14.4133 6.75071C14.9536 5.76686 14.9535 4.56999 14.4132 3.58619L13.5367 4.06757Z" fill="#F7F6F4" mask="url(#path-1-inside-1_561_10875)"/>
<circle cx="7" cy="5.16846" r="2.5" stroke="#F7F6F4"/>
</svg>
