<svg width="20" height="18" viewBox="0 0 20 18" fill="none" xmlns="http://www.w3.org/2000/svg">
<path d="M14.2461 1.35278V0.602783H14.2461L14.2461 1.35278ZM19.0107 7.02368H19.7607V7.02366L19.0107 7.02368ZM10.0117 17.2336H9.26172V17.9838L10.0119 17.9836L10.0117 17.2336ZM10.0117 17.2327H10.7617V16.4834L10.0124 16.4827L10.0117 17.2327ZM1.01367 7.02368L0.263672 7.02366V7.02368H1.01367ZM5.77832 1.35278L5.77835 0.602783H5.77832V1.35278ZM10.0127 3.26099L9.47338 3.78217L10.0128 4.34033L10.5521 3.7821L10.0127 3.26099ZM14.2461 1.35278V2.10278C16.3674 2.10278 18.2607 4.09293 18.2607 7.0237L19.0107 7.02368L19.7607 7.02366C19.7606 3.5062 17.4184 0.602783 14.2461 0.602783V1.35278ZM19.0107 7.02368H18.2607C18.2607 9.4043 16.7181 11.7719 14.7896 13.5991C13.8388 14.4999 12.8283 15.2359 11.9399 15.7422C11.0142 16.2698 10.3329 16.4836 10.0116 16.4836L10.0117 17.2336L10.0119 17.9836C10.7494 17.9835 11.7225 17.5926 12.6826 17.0454C13.6801 16.4769 14.787 15.6679 15.8213 14.688C17.8628 12.7537 19.7607 10.0165 19.7607 7.02368H19.0107ZM10.0117 17.2336H10.7617V17.2327H10.0117H9.26172V17.2336H10.0117ZM10.0117 17.2327L10.0124 16.4827C9.69044 16.4824 9.0088 16.2682 8.08323 15.7406C7.19485 15.2343 6.18448 14.4984 5.23392 13.5977C3.30582 11.7709 1.76367 9.40391 1.76367 7.02368H1.01367H0.263672C0.263672 10.0161 2.16106 12.7526 4.20224 14.6866C5.23632 15.6664 6.34303 16.4753 7.34043 17.0438C8.30065 17.5911 9.27351 17.982 10.011 17.9827L10.0117 17.2327ZM1.01367 7.02368L1.76367 7.0237C1.76376 4.09293 3.65704 2.10278 5.77832 2.10278V1.35278V0.602783C2.606 0.602783 0.263777 3.5062 0.263672 7.02366L1.01367 7.02368ZM5.77832 1.35278L5.77829 2.10278C6.96188 2.10283 7.75165 2.4042 8.29489 2.73958C8.85612 3.08607 9.17529 3.47372 9.47338 3.78217L10.0127 3.26099L10.552 2.7398C10.3205 2.50021 9.84511 1.93381 9.08288 1.46323C8.30267 0.981551 7.24006 0.60284 5.77835 0.602783L5.77832 1.35278ZM10.0127 3.26099L10.5521 3.7821C10.8502 3.47351 11.1694 3.08586 11.7304 2.73944C12.2735 2.40411 13.0629 2.10283 14.2461 2.10278L14.2461 1.35278L14.2461 0.602783C12.7847 0.60284 11.7224 0.981478 10.9423 1.46314C10.1802 1.9337 9.70496 2.5001 9.4733 2.73988L10.0127 3.26099Z" fill="white"/>
</svg>
