<svg width="25" height="24" viewBox="0 0 25 24" fill="none" xmlns="http://www.w3.org/2000/svg">
<path d="M12.0117 0C18.6391 0 24.0117 5.37258 24.0117 12C24.0117 18.6274 18.6391 24 12.0117 24C5.3843 24 0.0117188 18.6274 0.0117188 12C0.0117188 5.37258 5.3843 0 12.0117 0ZM12.0117 3.4043C11.3674 3.4043 10.8448 3.92699 10.8447 4.57129V12.1904C10.8448 13.2029 11.6662 14.0234 12.6787 14.0234H17.1543L17.2734 14.0176C17.8618 13.958 18.3211 13.4614 18.3213 12.8574C18.3213 12.2532 17.8619 11.7558 17.2734 11.6963L17.1543 11.6904H13.1787V4.57129C13.1787 3.92699 12.656 3.4043 12.0117 3.4043Z" fill="#FA451E"/>
</svg>
