<svg width="105" height="22" viewBox="0 0 105 22" fill="none" xmlns="http://www.w3.org/2000/svg">
<path d="M102.691 5.15485H104.765V16.4334C104.765 17.4769 104.57 18.3631 104.178 19.0922C103.787 19.8212 103.241 20.3751 102.54 20.7539C101.839 21.1399 101.028 21.3329 100.106 21.3329C99.7144 21.3329 99.2788 21.2685 98.7989 21.1399C98.3254 21.0112 97.8645 20.804 97.4162 20.5181C96.9743 20.2393 96.6049 19.8712 96.3082 19.4138L97.3783 17.8914C97.7445 18.3846 98.1486 18.7455 98.5906 18.9742C99.0325 19.203 99.4966 19.3173 99.9827 19.3173C100.507 19.3173 100.952 19.2065 101.318 18.985C101.691 18.7705 101.978 18.4525 102.18 18.0308C102.382 17.6091 102.483 17.0945 102.483 16.487V7.7815L102.691 5.15485ZM95.7305 11.0836V10.8584C95.7305 9.97931 95.8252 9.17881 96.0146 8.45692C96.204 7.7279 96.4755 7.1025 96.8291 6.58075C97.1826 6.05184 97.6119 5.64802 98.117 5.36927C98.6221 5.08338 99.1935 4.94043 99.8312 4.94043C100.494 4.94043 101.059 5.07623 101.526 5.34783C102 5.61943 102.395 6.00896 102.71 6.51642C103.026 7.01673 103.272 7.61711 103.449 8.31755C103.632 9.01084 103.768 9.78276 103.856 10.6333V11.3516C103.774 12.1807 103.635 12.9383 103.439 13.6245C103.244 14.3106 102.985 14.9038 102.663 15.4041C102.341 15.9045 101.943 16.2904 101.47 16.562C101.002 16.8336 100.45 16.9694 99.8123 16.9694C99.1872 16.9694 98.6221 16.8229 98.117 16.5299C97.6183 16.2368 97.1889 15.8258 96.8291 15.2969C96.4755 14.768 96.204 14.1462 96.0146 13.4315C95.8252 12.7096 95.7305 11.927 95.7305 11.0836ZM98.0129 10.8584V11.0836C98.0129 11.6125 98.0571 12.1056 98.1455 12.5631C98.2402 13.0205 98.3822 13.4243 98.5716 13.7746C98.7674 14.1176 99.0136 14.3892 99.3103 14.5893C99.6134 14.7823 99.9701 14.8788 100.381 14.8788C100.917 14.8788 101.356 14.7502 101.697 14.4929C102.044 14.2356 102.309 13.8889 102.492 13.4529C102.682 13.0098 102.814 12.5166 102.89 11.9734V10.0329C102.852 9.61122 102.773 9.21812 102.653 8.8536C102.54 8.48909 102.385 8.17103 102.189 7.89943C101.994 7.62069 101.747 7.40626 101.451 7.25617C101.154 7.09893 100.804 7.02031 100.399 7.02031C99.9891 7.02031 99.6323 7.12037 99.3293 7.3205C99.0262 7.52062 98.7768 7.7958 98.5811 8.14602C98.3917 8.49624 98.2496 8.90363 98.1549 9.36821C98.0602 9.83279 98.0129 10.3295 98.0129 10.8584Z" fill="#FA451E"/>
<path d="M85.6602 11.0836V10.837C85.6602 10.0008 85.7675 9.22526 85.9822 8.51053C86.1968 7.78865 86.5062 7.16325 86.9103 6.63435C87.3207 6.0983 87.8194 5.68375 88.4066 5.39071C89.0001 5.09052 89.6693 4.94043 90.4144 4.94043C91.1657 4.94043 91.8349 5.09052 92.4221 5.39071C93.0156 5.68375 93.5175 6.0983 93.9279 6.63435C94.3383 7.16325 94.6508 7.78865 94.8655 8.51053C95.0802 9.22526 95.1875 10.0008 95.1875 10.837V11.0836C95.1875 11.9198 95.0802 12.6953 94.8655 13.41C94.6508 14.1248 94.3383 14.7502 93.9279 15.2862C93.5175 15.8151 93.0188 16.2297 92.4316 16.5299C91.8444 16.8229 91.1783 16.9694 90.4333 16.9694C89.682 16.9694 89.0096 16.8229 88.4161 16.5299C87.8289 16.2297 87.3301 15.8151 86.9197 15.2862C86.5093 14.7502 86.1968 14.1248 85.9822 13.41C85.7675 12.6953 85.6602 11.9198 85.6602 11.0836ZM87.9426 10.837V11.0836C87.9426 11.6053 87.9899 12.0985 88.0846 12.5631C88.1793 13.0277 88.3277 13.4351 88.5297 13.7853C88.7318 14.1355 88.9906 14.4107 89.3063 14.6108C89.622 14.8109 89.9977 14.911 90.4333 14.911C90.8563 14.911 91.2225 14.8109 91.5319 14.6108C91.8476 14.4107 92.1064 14.1355 92.3085 13.7853C92.5105 13.4351 92.6589 13.0277 92.7536 12.5631C92.8546 12.0985 92.9051 11.6053 92.9051 11.0836V10.837C92.9051 10.3224 92.8546 9.83636 92.7536 9.37893C92.6589 8.91435 92.5074 8.50338 92.299 8.14601C92.097 7.78865 91.8381 7.5099 91.5224 7.30978C91.213 7.1025 90.8437 6.99887 90.4144 6.99887C89.985 6.99887 89.6125 7.1025 89.2968 7.30978C88.9875 7.5099 88.7318 7.78865 88.5297 8.14601C88.3277 8.50338 88.1793 8.91435 88.0846 9.37893C87.9899 9.83636 87.9426 10.3224 87.9426 10.837Z" fill="#FA451E"/>
<path d="M84.5614 0.287109V16.7546H82.2695V0.287109H84.5614Z" fill="#FA451E"/>
<path d="M64.6144 7.51348V16.755H62.332V5.15485H64.4818L64.6144 7.51348ZM64.2451 10.5261L63.4685 10.5154C63.4685 9.71486 63.5569 8.97511 63.7337 8.29611C63.9105 7.61711 64.1693 7.02746 64.5103 6.52714C64.8512 6.01968 65.2742 5.63015 65.7793 5.35855C66.2907 5.0798 66.881 4.94043 67.5503 4.94043C68.0175 4.94043 68.4437 5.01905 68.8288 5.17629C69.2203 5.32639 69.558 5.56582 69.8422 5.8946C70.1326 6.22338 70.3536 6.64507 70.5051 7.15968C70.6629 7.67429 70.7419 8.29611 70.7419 9.02514V16.755H68.4595V9.25028C68.4595 8.68564 68.3837 8.2425 68.2322 7.92087C68.087 7.59924 67.8754 7.37053 67.5976 7.23473C67.3262 7.09178 67.001 7.02031 66.6222 7.02031C66.1929 7.02031 65.8267 7.11322 65.5236 7.29905C65.2269 7.48489 64.9838 7.73862 64.7944 8.06025C64.605 8.38188 64.4661 8.75354 64.3777 9.17523C64.2893 9.59693 64.2451 10.0472 64.2451 10.5261ZM70.5998 9.83994L69.5296 10.108C69.5296 9.40752 69.6149 8.74639 69.7853 8.12457C69.9621 7.49561 70.2178 6.94526 70.5525 6.47354C70.8934 5.99466 71.3133 5.61943 71.812 5.34783C72.3108 5.07623 72.8822 4.94043 73.5262 4.94043C74.0502 4.94043 74.5174 5.02262 74.9278 5.18701C75.3445 5.34425 75.6981 5.59441 75.9885 5.93748C76.279 6.28056 76.4999 6.72727 76.6515 7.27761C76.803 7.82081 76.8788 8.47837 76.8788 9.25028V16.755H74.5869V9.23956C74.5869 8.65348 74.5111 8.19962 74.3596 7.87799C74.2144 7.55636 74.006 7.33479 73.7346 7.21329C73.4631 7.08463 73.1379 7.02031 72.7591 7.02031C72.4055 7.02031 72.093 7.09536 71.8215 7.24545C71.5563 7.3884 71.3322 7.5921 71.1491 7.85655C70.966 8.11385 70.8271 8.41047 70.7324 8.74639C70.644 9.08232 70.5998 9.44683 70.5998 9.83994Z" fill="#FA451E"/>
<path d="M58.6697 14.0206V5.1543H60.9616V16.7544H58.8023L58.6697 14.0206ZM58.9917 11.6084L59.7588 11.5869C59.7588 12.366 59.683 13.0843 59.5315 13.7418C59.38 14.3922 59.1464 14.9605 58.8307 15.4465C58.515 15.9254 58.1109 16.3006 57.6185 16.5722C57.126 16.8366 56.5357 16.9689 55.8475 16.9689C55.3487 16.9689 54.891 16.8867 54.4743 16.7223C54.0576 16.5579 53.6977 16.3042 53.3946 15.9611C53.0979 15.618 52.8674 15.1713 52.7033 14.621C52.5391 14.0706 52.457 13.4131 52.457 12.6483V5.1543H54.7394V12.6697C54.7394 13.0914 54.7836 13.4452 54.872 13.7311C54.9604 14.0099 55.0804 14.235 55.2319 14.4065C55.3834 14.5781 55.5602 14.6996 55.7622 14.7711C55.9643 14.8425 56.179 14.8783 56.4062 14.8783C57.0566 14.8783 57.568 14.7353 57.9405 14.4494C58.3193 14.1564 58.5876 13.7633 58.7455 13.2701C58.9096 12.7769 58.9917 12.223 58.9917 11.6084Z" fill="#FA451E"/>
<path d="M43.5446 1.14453L46.7457 8.59564L49.9467 1.14453H52.5795L47.9389 11.0079V16.7543H45.5429V11.0079L40.9023 1.14453H43.5446Z" fill="#FA451E"/>
<path d="M24.4933 7.51348V16.755H22.2109V5.15485H24.3607L24.4933 7.51348ZM24.124 10.5261L23.3474 10.5154C23.3474 9.71486 23.4358 8.97511 23.6126 8.29611C23.7894 7.61711 24.0482 7.02746 24.3892 6.52714C24.7301 6.01968 25.1531 5.63015 25.6582 5.35855C26.1696 5.0798 26.7599 4.94043 27.4292 4.94043C27.8964 4.94043 28.3226 5.01905 28.7077 5.17629C29.0992 5.32639 29.437 5.56582 29.7211 5.8946C30.0115 6.22338 30.2325 6.64507 30.384 7.15968C30.5418 7.67429 30.6208 8.29611 30.6208 9.02514V16.755H28.3384V9.25028C28.3384 8.68564 28.2626 8.2425 28.1111 7.92087C27.9659 7.59924 27.7544 7.37053 27.4766 7.23473C27.2051 7.09178 26.8799 7.02031 26.5011 7.02031C26.0718 7.02031 25.7056 7.11322 25.4025 7.29905C25.1058 7.48489 24.8627 7.73862 24.6733 8.06025C24.4839 8.38188 24.345 8.75354 24.2566 9.17523C24.1682 9.59693 24.124 10.0472 24.124 10.5261ZM30.4787 9.83994L29.4085 10.108C29.4085 9.40752 29.4938 8.74639 29.6642 8.12457C29.841 7.49561 30.0967 6.94526 30.4314 6.47354C30.7723 5.99466 31.1922 5.61943 31.6909 5.34783C32.1897 5.07623 32.7611 4.94043 33.4051 4.94043C33.9291 4.94043 34.3964 5.02262 34.8067 5.18701C35.2234 5.34425 35.577 5.59441 35.8674 5.93748C36.1579 6.28056 36.3789 6.72727 36.5304 7.27761C36.6819 7.82081 36.7577 8.47837 36.7577 9.25028V16.755H34.4658V9.23956C34.4658 8.65348 34.39 8.19962 34.2385 7.87799C34.0933 7.55636 33.8849 7.33479 33.6135 7.21329C33.342 7.08463 33.0168 7.02031 32.638 7.02031C32.2844 7.02031 31.9719 7.09536 31.7004 7.24545C31.4352 7.3884 31.2111 7.5921 31.028 7.85655C30.8449 8.11385 30.706 8.41047 30.6113 8.74639C30.5229 9.08232 30.4787 9.44683 30.4787 9.83994Z" fill="#FA451E"/>
<path d="M18.5486 14.0206V5.1543H20.8405V16.7544H18.6812L18.5486 14.0206ZM18.8706 11.6084L19.6377 11.5869C19.6377 12.366 19.562 13.0843 19.4104 13.7418C19.2589 14.3922 19.0253 14.9605 18.7096 15.4465C18.3939 15.9254 17.9898 16.3006 17.4974 16.5722C17.0049 16.8366 16.4146 16.9689 15.7264 16.9689C15.2276 16.9689 14.7699 16.8867 14.3532 16.7223C13.9365 16.5579 13.5766 16.3042 13.2735 15.9611C12.9768 15.618 12.7463 15.1713 12.5822 14.621C12.418 14.0706 12.3359 13.4131 12.3359 12.6483V5.1543H14.6183V12.6697C14.6183 13.0914 14.6625 13.4452 14.7509 13.7311C14.8393 14.0099 14.9593 14.235 15.1108 14.4065C15.2623 14.5781 15.4391 14.6996 15.6412 14.7711C15.8432 14.8425 16.0579 14.8783 16.2851 14.8783C16.9355 14.8783 17.4469 14.7353 17.8194 14.4494C18.1982 14.1564 18.4665 13.7633 18.6244 13.2701C18.7885 12.7769 18.8706 12.223 18.8706 11.6084Z" fill="#FA451E"/>
<path d="M3.41962 1.14453L6.62066 8.59564L9.8217 1.14453H12.4545L7.81395 11.0079V16.7543H5.4179V11.0079L0.777344 1.14453H3.41962Z" fill="#FA451E"/>
</svg>
