<svg width="126" height="50" viewBox="0 0 126 50" fill="none" xmlns="http://www.w3.org/2000/svg">
<rect x="0.5" y="0.5" width="125" height="49" rx="24.5" fill="#FA451E"/>
<rect x="0.5" y="0.5" width="125" height="49" rx="24.5" stroke="#FA451E"/>
<path d="M40.5625 32V17.8594H42.3203V30.4375H48.8828V32H40.5625ZM54.7477 32.2148C51.857 32.2246 49.9039 30.0371 49.9039 26.7461C49.9039 23.4355 51.857 21.2578 54.7477 21.2578C57.6285 21.2578 59.5621 23.4355 59.5523 26.7461C59.5621 30.0371 57.6285 32.2246 54.7477 32.2148ZM51.5836 26.7461C51.5934 28.8652 52.5895 30.7305 54.7477 30.7305C56.8863 30.7305 57.8727 28.8652 57.8727 26.7461C57.8727 24.6367 56.8863 22.7422 54.7477 22.7422C52.5895 22.7422 51.5934 24.6367 51.5836 26.7461ZM65.4562 36.1992C62.8879 36.1992 61.1496 35.0762 60.9641 33.1133H62.7219C62.9465 34.1973 63.9523 34.7344 65.4562 34.7344C67.2727 34.7344 68.3859 33.9434 68.3859 32.1953V30.0469H68.2492C67.8879 30.6328 67.2141 31.834 65.1633 31.8438C62.5852 31.834 60.6516 29.8906 60.6516 26.5508C60.6516 23.2891 62.5168 21.2578 65.1828 21.2578C67.2434 21.2578 67.9074 22.5078 68.2883 23.0742H68.425V21.3945H70.0656V32.293C70.0559 35.0273 68.0441 36.1992 65.4562 36.1992ZM62.3508 26.6094C62.3508 28.8066 63.3859 30.3398 65.3977 30.3398C67.341 30.3398 68.4152 28.9434 68.425 26.6094C68.4152 24.334 67.3703 22.7617 65.3977 22.7617C63.3566 22.7617 62.3508 24.4707 62.3508 26.6094ZM78.5336 17.8594V32H76.7758V17.8594H78.5336ZM82.5234 25.6328V32H80.8438V21.3945H82.4648V23.0547H82.6016C83.0996 21.9707 84.0957 21.2578 85.707 21.2578C87.8555 21.2578 89.291 22.5664 89.2812 25.2617V32H87.6016V25.3789C87.6016 23.7383 86.7031 22.7617 85.1992 22.7617C83.6562 22.7617 82.5234 23.7969 82.5234 25.6328Z" fill="#F7F6F4"/>
</svg>
