<svg width="126" height="50" viewBox="0 0 126 50" fill="none" xmlns="http://www.w3.org/2000/svg">
<rect x="0.5" y="0.5" width="125.002" height="49" rx="24.5" stroke="#FA451E"/>
<path d="M40.5632 32V17.8594H42.321V30.4375H48.8835V32H40.5632ZM54.7484 32.2148C51.8578 32.2246 49.9046 30.0371 49.9046 26.7461C49.9046 23.4355 51.8578 21.2578 54.7484 21.2578C57.6292 21.2578 59.5628 23.4355 59.5531 26.7461C59.5628 30.0371 57.6292 32.2246 54.7484 32.2148ZM51.5843 26.7461C51.5941 28.8652 52.5902 30.7305 54.7484 30.7305C56.8871 30.7305 57.8734 28.8652 57.8734 26.7461C57.8734 24.6367 56.8871 22.7422 54.7484 22.7422C52.5902 22.7422 51.5941 24.6367 51.5843 26.7461ZM65.457 36.1992C62.8886 36.1992 61.1503 35.0762 60.9648 33.1133H62.7226C62.9472 34.1973 63.9531 34.7344 65.457 34.7344C67.2734 34.7344 68.3867 33.9434 68.3867 32.1953V30.0469H68.25C67.8886 30.6328 67.2148 31.834 65.164 31.8438C62.5859 31.834 60.6523 29.8906 60.6523 26.5508C60.6523 23.2891 62.5175 21.2578 65.1835 21.2578C67.2441 21.2578 67.9082 22.5078 68.289 23.0742H68.4257V21.3945H70.0664V32.293C70.0566 35.0273 68.0449 36.1992 65.457 36.1992ZM62.3515 26.6094C62.3515 28.8066 63.3867 30.3398 65.3984 30.3398C67.3417 30.3398 68.416 28.9434 68.4257 26.6094C68.416 24.334 67.371 22.7617 65.3984 22.7617C63.3574 22.7617 62.3515 24.4707 62.3515 26.6094ZM78.5343 17.8594V32H76.7765V17.8594H78.5343ZM82.5242 25.6328V32H80.8445V21.3945H82.4656V23.0547H82.6023C83.1003 21.9707 84.0964 21.2578 85.7078 21.2578C87.8562 21.2578 89.2917 22.5664 89.282 25.2617V32H87.6023V25.3789C87.6023 23.7383 86.7039 22.7617 85.2 22.7617C83.657 22.7617 82.5242 23.7969 82.5242 25.6328Z" fill="#FA451E"/>
</svg>
