<svg width="126" height="50" viewBox="0 0 126 50" fill="none" xmlns="http://www.w3.org/2000/svg">
<rect x="0.5" y="0.5" width="125" height="49" rx="24.5" fill="#FA451E"/>
<rect x="0.5" y="0.5" width="125" height="49" rx="24.5" stroke="#FA451E"/>
<path d="M23.0618 32V17.8594H27.8665C31.177 17.8594 32.6907 19.832 32.6907 22.3516C32.6907 24.8613 31.177 26.8633 27.886 26.8633H24.8196V32H23.0618ZM24.8196 25.3008H27.8079C30.0637 25.3008 30.9426 24.0312 30.9524 22.3516C30.9426 20.6621 30.0637 19.4219 27.7883 19.4219H24.8196V25.3008ZM34.3368 32V21.3945H35.9579V23.0156H36.075C36.4559 21.9414 37.5594 21.2285 38.8094 21.2188C39.0633 21.2285 39.493 21.2383 39.6883 21.2578V22.957C39.5614 22.9277 39.1122 22.8398 38.6727 22.8398C37.1493 22.8398 36.0165 23.8945 36.0165 25.3203V32H34.3368ZM44.7133 32.2148C41.8227 32.2246 39.8696 30.0371 39.8696 26.7461C39.8696 23.4355 41.8227 21.2578 44.7133 21.2578C47.5942 21.2578 49.5278 23.4355 49.518 26.7461C49.5278 30.0371 47.5942 32.2246 44.7133 32.2148ZM41.5493 26.7461C41.559 28.8652 42.5551 30.7305 44.7133 30.7305C46.852 30.7305 47.8383 28.8652 47.8383 26.7461C47.8383 24.6367 46.852 22.7422 44.7133 22.7422C42.5551 22.7422 41.559 24.6367 41.5493 26.7461ZM55.8711 21.3945V22.8008H53.5274V32H51.8282V22.8008H50.129V21.3945H51.8282V19.9492C51.8379 18.2305 52.9805 17.1953 54.8555 17.1953C55.2657 17.1953 55.754 17.2441 56.1055 17.3125V18.8164C55.7442 18.7578 55.4415 18.7383 55.2266 18.7383C54.045 18.7383 53.5176 19.2266 53.5274 20.3203V21.3945H55.8711ZM57.2633 32V21.3945H58.943V32H57.2633ZM56.9313 18.5234C56.9215 17.8984 57.4586 17.4004 58.1032 17.4102C58.7477 17.4004 59.2848 17.8984 59.2946 18.5234C59.2848 19.1387 58.7477 19.6367 58.1032 19.6367C57.4586 19.6367 56.9215 19.1387 56.9313 18.5234ZM62.6985 17.8594V32H61.0188V17.8594H62.6985ZM69.2274 32.2148C66.161 32.2246 64.2665 30.0371 64.2665 26.7852C64.2665 23.5234 66.1903 21.2578 69.0711 21.2578C71.2977 21.2578 73.6512 22.625 73.6415 26.5508V27.2539H65.9461C66.034 29.5 67.3426 30.7305 69.2274 30.7305C70.4969 30.7305 71.2977 30.1738 71.6883 29.5195H73.4852C72.9872 31.1309 71.4149 32.2246 69.2274 32.2148ZM65.9559 25.8281H71.9422C71.9325 24.0605 70.8192 22.7422 69.0711 22.7422C67.2352 22.7422 66.0731 24.1875 65.9559 25.8281Z" fill="#F7F6F4"/>
<path d="M101.499 22.9993L96.4993 27.9993L91.4993 22.9993" stroke="#F7F6F4" stroke-width="1.5" stroke-linecap="round" stroke-linejoin="round"/>
</svg>
