<svg width="170" height="50" viewBox="0 0 170 50" fill="none" xmlns="http://www.w3.org/2000/svg">
<rect x="0.5" y="0.5" width="169" height="49" rx="24.5" stroke="#FA451E"/>
<path d="M28.9993 13C35.6267 13 40.9993 18.3726 40.9993 25C40.9993 31.6274 35.6267 37 28.9993 37C22.3719 37 16.9993 31.6274 16.9993 25C16.9993 18.3726 22.3719 13 28.9993 13ZM28.9993 16.4043C28.355 16.4043 27.8323 16.927 27.8323 17.5713V25.1904C27.8323 26.2029 28.6538 27.0234 29.6663 27.0234H34.1418L34.261 27.0176C34.8493 26.958 35.3086 26.4614 35.3088 25.8574C35.3088 25.2532 34.8495 24.7558 34.261 24.6963L34.1418 24.6904H30.1663V17.5713C30.1662 16.927 29.6436 16.4043 28.9993 16.4043Z" fill="#FA451E"/>
<path d="M57.3274 17.8594V32H55.55V19.6953H55.4719L52.0344 21.9805V20.2031L55.55 17.8594H57.3274ZM62.1961 25.6328V32H60.5165V17.8594H62.1961V23.0547H62.3329C62.8309 21.9609 63.7782 21.2578 65.4579 21.2578C67.6258 21.2578 69.0711 22.5371 69.0711 25.2617V32H67.3915V25.3789C67.3915 23.709 66.4735 22.7617 64.95 22.7617C63.368 22.7617 62.1961 23.7969 62.1961 25.6328ZM76.7774 30.2031C76.0938 30.1934 75.5079 29.627 75.5274 28.9336C75.5079 28.25 76.0938 27.6836 76.7774 27.6836C77.4708 27.6836 78.0372 28.25 78.0274 28.9336C78.0372 29.627 77.4708 30.1934 76.7774 30.2031ZM75.5274 21.7852C75.5079 21.1016 76.0938 20.5352 76.7774 20.5352C77.4708 20.5352 78.0372 21.1016 78.0274 21.7852C78.0372 22.4785 77.4708 23.0449 76.7774 23.0547C76.0938 23.0449 75.5079 22.4785 75.5274 21.7852ZM89.0735 32.1953C86.5247 32.1953 84.5911 30.623 84.4836 28.4453H86.1829C86.3098 29.7051 87.5403 30.6426 89.0735 30.6523C90.9094 30.6426 92.2375 29.3047 92.2375 27.5273C92.2375 25.6914 90.8606 24.334 88.9563 24.3242C87.7649 24.3047 86.8372 24.6758 86.3196 25.5938H84.6204L85.6165 17.8594H93.2727V19.4219H87.0813L86.554 23.5625H86.6907C87.3254 23.0742 88.2727 22.7422 89.2688 22.7422C91.9641 22.7422 93.9465 24.7344 93.9563 27.4883C93.9465 30.2227 91.8958 32.1953 89.0735 32.1953ZM100.681 32.1953C97.868 32.1953 95.8465 30.6914 95.7586 28.4453H97.536C97.6336 29.793 98.9715 30.6328 100.661 30.6328C102.526 30.6328 103.874 29.627 103.884 28.1523C103.874 26.6094 102.643 25.5254 100.446 25.5156H99.2938V23.9727H100.446C102.165 23.9727 103.366 23.0059 103.356 21.5508C103.366 20.1348 102.331 19.1973 100.72 19.1875C99.2059 19.1973 97.829 20.0273 97.7508 21.4141H96.0516C96.1395 19.168 98.2293 17.6641 100.739 17.6641C103.434 17.6641 105.075 19.4316 105.056 21.4531C105.075 23.0645 104.138 24.2363 102.653 24.6562V24.7539C104.499 25.0371 105.612 26.3555 105.602 28.1523C105.612 30.4766 103.503 32.1953 100.681 32.1953ZM107.561 32V21.3945H109.182V23.0547H109.319C109.758 21.9219 110.784 21.2578 112.17 21.2578C113.557 21.2578 114.504 21.9219 115.002 23.0547H115.12C115.657 21.9609 116.78 21.2578 118.303 21.2578C120.188 21.2578 121.545 22.4102 121.545 24.9102V32H119.866V24.9297C119.856 23.3672 118.879 22.7617 117.717 22.7617C116.243 22.7617 115.403 23.7578 115.393 25.1055V32H113.694V24.7539C113.704 23.5625 112.844 22.7617 111.623 22.7617C110.354 22.7617 109.241 23.8359 109.241 25.3789V32H107.561Z" fill="#FA451E"/>
<path d="M149.999 22.9993L144.999 27.9993L139.999 22.9993" stroke="#FA451E" stroke-width="1.5" stroke-linecap="round" stroke-linejoin="round"/>
</svg>
